<svg id="Layer_1" data-name="Layer 1" xmlns="http://www.w3.org/2000/svg" viewBox="0 0 1440 2960"><defs><style>.cls-1{fill:none;stroke:#000;stroke-linecap:round;stroke-linejoin:round;stroke-width:3px;}</style></defs><path class="cls-1" d="m803.3,2048.9c-3.1,1.9-2.6,10,5.4,16,6.8,5.1,19.4,8.6,32.4,8.6,16.6,0,31.1-5.6,36.9-13.7,1.7-2.3-2.2-5-4-2.6-5.1,7.1-18.4,12.2-33,12.2-11.9,0-23.6-3.2-29.9-7.9-6.9-5.2-9.1-11.9-7.8-12.6Z"/><path class="cls-1" d="m809.1,2013.1c5.8-8.2,19.4-11.9,33-11.9,12.2,0,23.3,3.3,30,8.4,6.5,5,8.8,11.6,7.6,12.4-3.1,1.9-2.9,10.1,5.2,16.2,7,5.2,19.9,8.7,33.3,8.7,16.7,0,31.4-5.8,37.1-13.9,1.7-2.3-2.2-5-4-2.6-5.1,7.2-18.6,12.4-33.1,12.4-12.2,0-23.9-3.3-30.5-8.1-7.1-5.3-9.2-12.1-7.6-12.7,3.1-1.9,2.6-10-5.4-16-6.8-5.1-19.4-8.6-32.4-8.6-16.6,0-31.1,5.6-36.9,13.7-1.6,2.4,2.3,5,4.1,2.6h-.5Z"/><path class="cls-1" d="m950,1991.9c0-6.8-5.5-12.3-12.3-12.3s-12.3,5.5-12.3,12.3,5.5,12.3,12.3,12.3,12.3-5.5,12.3-12.3Z"/><path class="cls-1" d="m889.7,1987c0-6.8-5.5-12.3-12.3-12.3s-12.3,5.5-12.3,12.3,5.5,12.3,12.3,12.3,12.3-5.5,12.3-12.3Z"/><path class="cls-1" d="m820.5,2002.9c0-6.8-5.5-12.3-12.3-12.3s-12.3,5.5-12.3,12.3,5.5,12.3,12.3,12.3,12.3-5.5,12.3-12.3Z"/><path class="cls-1" d="m813.6,663.4c0-15.9-12.9-28.8-28.8-28.8s-28.8,12.9-28.8,28.8,12.9,28.8,28.8,28.8,28.8-12.9,28.8-28.8Z"/><path class="cls-1" d="m813.6,663.4c0-11.1-9-20.1-20.1-20.1s-20.1,9-20.1,20.1,9,20.1,20.1,20.1,20.1-9,20.1-20.1Z"/><path class="cls-1" d="m822.8,699.1c.4.7.6,1.4,1.1,2.1l5,19.2"/><path class="cls-1" d="m806.4,703.2c0,.7,0,1.7.4,2.5l5,19.2"/><path class="cls-1" d="m833.3,732.6l4.3,16.4,9,34.8.8,3.6c1.3,4.6-1.7,9.5-6.3,10.7-2.3.6-4.9.1-6.5-.8-2.1-1.1-3.6-3.1-4-5.3l-14.2-54.5"/><path class="cls-1" d="m833.5,732.6l-17.4,4.6c-4.4,1.3-8.9-1.7-10-5.8-1.3-4.4,1.7-8.9,5.8-10l17.4-4.6c4.4-1.3,9,1.7,10,5.8,1.5,4.3-1.4,9-5.8,10Z"/><path class="cls-1" d="m883.5,774.4l-34.5,8.9-9.2-34.5,34.6-9,2.9,10.8-20,12.1,23.2-.1z"/><path class="cls-1" d="m1376,1773.3c5.8-8.2,19.4-11.9,33-11.9,12.2,0,23.3,3.3,30,8.4,6.5,5,8.8,11.6,7.6,12.4-3.1,1.9-2.9,10.1,5.2,16.2,7,5.2,19.9,8.7,33.3,8.7,16.7,0,31.4-5.8,37.1-13.9,1.7-2.3-2.2-5-4-2.6-5.1,7.2-18.6,12.4-33.1,12.4-12.2,0-23.9-3.3-30.5-8.1-7.1-5.3-9.2-12.1-7.6-12.7,3.1-1.9,2.6-10-5.4-16-6.8-5.1-19.4-8.6-32.4-8.6-16.6,0-31.1,5.6-36.9,13.7-1.6,2.4,2.3,5,4.1,2.6h-.4Z"/><path class="cls-1" d="m1516.9,1752.1c0-6.8-5.5-12.3-12.3-12.3s-12.3,5.5-12.3,12.3,5.5,12.3,12.3,12.3,12.3-5.5,12.3-12.3Z"/><path class="cls-1" d="m1456.6,1747.2c0-6.8-5.5-12.3-12.3-12.3s-12.3,5.5-12.3,12.3,5.5,12.3,12.3,12.3,12.3-5.5,12.3-12.3Z"/><path class="cls-1" d="m1387.4,1763.1c0-6.8-5.5-12.3-12.3-12.3s-12.3,5.5-12.3,12.3,5.5,12.3,12.3,12.3,12.3-5.5,12.3-12.3Z"/><path class="cls-1" d="m1370.2,1809.1c-3.1,1.9-2.6,10,5.4,16,6.8,5.1,19.4,8.6,32.4,8.6,16.6,0,31.1-5.6,36.9-13.7,1.7-2.3-2.2-5-4-2.6-5.1,7.1-18.4,12.2-33,12.2-11.9,0-23.6-3.2-29.9-7.9-6.9-5.2-9.1-11.9-7.8-12.6Z"/><ellipse class="cls-1" cx="138.4" cy="1137.1" rx="137.9" ry="138.3"/><path class="cls-1" d="m138.4,1032.4c61.8,0,111.8,50.3,111.8,112.2s-50,112.2-111.8,112.2-111.8-50.3-111.8-112.2,50-112.2,111.8-112.2Z"/><path class="cls-1" d="m78,1088.8c46.1-11.3,92.7-2.8,136.4,27.4"/><path class="cls-1" d="m253.6,1143.7s-13.6-15.9-36.7-31.7c-19.2-13.2-45.1-26.6-75-30.6-24.1-3.2-44.8-.8-61.4,3.2-29.1,7.2-45.8,20.3-45.8,20.3"/><path class="cls-1" d="m239.5,1184.7c2.5-12.9-9.6-19.6-22.5-21.9l-.1.1c-11.3,29.2-40.4,50.4-75,51.3,2.1-4.6,4-5.8,14.7-17.7,9.3,6.4,22.3-.4,22.3-11.7,0-3.2-.8-6.1-2.6-8.4"/><path class="cls-1" d="m92,1179.5c5.3,12.8,8.8,22.4,9.5,25.6-26.7-12.5-45.8-37.4-45.8-73.8-5.7-.8-12.7-.7-18.1,1.1-4.4.7-7.5,9.5-7.5,9.5"/><path class="cls-1" d="m129.1,1122.1c11.3,0,20.3,9,20.3,20.3s-9,20.3-20.3,20.3-20.3-9-20.3-20.3,9-20.3,20.3-20.3Z"/><path class="cls-1" d="m102.2,1098.8c4.9,0,8.5,3.8,8.5,8.5,0,4.9-3.8,8.5-8.5,8.5-4.9,0-8.5-3.8-8.5-8.5-.1-4.7,3.6-8.5,8.5-8.5Z"/><path class="cls-1" d="m165.6,1111.1c4.9,0,8.5,3.8,8.5,8.5,0,4.9-3.8,8.5-8.5,8.5s-8.5-3.8-8.5-8.5c-.1-4.7,3.6-8.5,8.5-8.5Z"/><path class="cls-1" d="m85.1,1160.5c7.7,0,13.6,6.1,13.6,13.8s-6,13.8-13.6,13.8-13.6-6.1-13.6-13.8,6-13.8,13.6-13.8Z"/><circle class="cls-1" cx="118.8" cy="1183.2" r="6.5"/><path class="cls-1" d="m151.2,1202.9c-3.8-2.5-6.3-6.8-6.3-11.7,0-7.8,6.4-14.2,14.2-14.2,4.6,0,8.9,2.4,11.4,5.7"/><circle class="cls-1" cx="186" cy="1146.8" r="4.5"/><circle class="cls-1" cx="200.1" cy="1137.8" r="4.5"/><circle class="cls-1" cx="195.3" cy="1159.7" r="4.5"/><circle class="cls-1" cx="209.6" cy="1151" r="4.5"/><path class="cls-1" d="m46.5,1192.3l39.8,7.7"/><path class="cls-1" d="m168.5,1213l46.6,9.5"/><path class="cls-1" d="m284.7,1149.1l9,5.7c1.4.8,2.6,2.1,3.3,3.6s1.3,3.1,1.3,4.9l13.6,4.6"/><path class="cls-1" d="m324.3,1172.1l18.4,6.3c2.4.7,4.3,2.1,5.7,3.9,1.4,1.8,2.5,4,2.8,6.4,1.3,10.6-.6,21.2-5,30.8l-6.4,13.4c-2.8,6.1-9.6,9.5-16.1,8.2l-45.9-8.9-1.9,3.3c-3.2,5.6-9.6,8.2-15.9,6.8l-17.2-3.9"/><path class="cls-1" d="m63.7,1020.9s4.3,15.3,16.6,18.2"/><path class="cls-1" d="m229.1,1062.4s10.8-12.2,21.6-11"/><path class="cls-1" d="m289.1,1179s3.9,7.8,19.3,5.1"/><path class="cls-1" d="m293.9,1168.3h0l-1.1-.1-1.1,13.9"/><path class="cls-1" d="m306.7,1170.1l-.4,1.5-2.1,12.9"/><path class="cls-1" d="m288.4,1159.1c0,1.7.6,3.2,1.7,4.3,2.4,2.6,5.1,4.6,10.1,5.6,6,.8,12.7,0,17-2.5,4.3-2.5,5.1-20.6,8.8-34.5,3.6-13.8,10-33-8.1-38.7s-25.5,5.8-27.3,11c-1.8,4.5-2.2,44.7-2.2,54.8Z"/></svg>
