<?xml version="1.0" encoding="UTF-8"?>
<svg id="Layer_2" data-name="Layer 2" xmlns="http://www.w3.org/2000/svg" xmlns:xlink="http://www.w3.org/1999/xlink" viewBox="0 0 245.87 245.87">
  <defs>
    <style>
      .cls-1 {
        fill: #526b8e;
      }

      .cls-2 {
        fill: #dcefef;
      }

      .cls-3 {
        fill: #0cc3f4;
      }

      .cls-4 {
        fill: url(#linear-gradient);
      }

      .cls-5 {
        fill: #00bfc4;
      }

      .cls-6 {
        fill: #d1e8e8;
      }
    </style>
    <linearGradient id="linear-gradient" x1="0" y1="122.94" x2="245.87" y2="122.94" gradientUnits="userSpaceOnUse">
      <stop offset="0" stop-color="#3d31d8"/>
      <stop offset=".65" stop-color="#02664b"/>
      <stop offset="1" stop-color="#006845"/>
    </linearGradient>
  </defs>
  <g id="Layer_1-2" data-name="Layer 1">
    <rect class="cls-4" x="0" y="0" width="245.87" height="245.87" rx="122.94" ry="122.94"/>
    <g>
      <g>
        <rect class="cls-1" x="167.35" y="-10.39" width=".53" height="105.56" transform="translate(47.1 166.36) rotate(-60)"/>
        <g>
          <rect class="cls-1" x="74.87" y="96.19" width=".5" height="105.56" transform="translate(-91.46 139.54) rotate(-60)"/>
          <rect class="cls-1" x="73.48" y="149.15" width=".44" height="105.56" transform="translate(-138.03 164.79) rotate(-60)"/>
          <rect class="cls-1" x="65.92" y="67.03" width="105.56" height=".51" transform="translate(-17.74 68.37) rotate(-30)"/>
          <rect class="cls-1" x="114.76" y="95.57" width="105.56" height=".43" transform="translate(-25.45 96.6) rotate(-30)"/>
          <rect class="cls-1" x="119.24" y="11.75" width=".65" height="105.56" transform="translate(3.9 135.81) rotate(-60)"/>
          <rect class="cls-1" x="115.54" y="148.73" width="105.56" height=".53" transform="translate(-51.94 104.12) rotate(-30)"/>
          <rect class="cls-1" x="114.97" y="201.7" width="105.56" height=".49" transform="translate(-78.5 110.93) rotate(-30)"/>
        </g>
      </g>
      <rect class="cls-1" x="72.98" y="94.69" width=".65" height="105.56"/>
    </g>
    <rect class="cls-5" x="76.19" y="42.9" width="3.37" height="105.56" transform="translate(-43.93 115.28) rotate(-60)"/>
    <rect class="cls-5" x="214.46" y="69.91" width=".65" height="105.56"/>
    <rect class="cls-5" x="169.89" y="96.77" width=".65" height="105.56"/>
    <rect class="cls-5" x="121.59" y="123.07" width=".65" height="105.56"/>
    <rect class="cls-5" x="74" y="-10.44" width="3.37" height="105.56" transform="translate(76.86 129.05) rotate(-120)"/>
    <rect class="cls-3" x="140.85" y="49.19" width="3.37" height="57.68" transform="translate(3.7 162.45) rotate(-60)"/>
    <rect class="cls-3" x="168.53" y="92.38" width="3.37" height="57.68"/>
    <rect class="cls-3" x="145.72" y="131.82" width="3.37" height="57.68" transform="translate(212.84 -47.33) rotate(60)"/>
    <rect class="cls-3" x="93.53" y="131.14" width="3.37" height="57.68" transform="translate(-90.93 162.45) rotate(-60)"/>
    <rect class="cls-5" x="94.73" y="186.33" width="3.37" height="57.68" transform="translate(-138.13 191.09) rotate(-60)"/>
    <rect class="cls-6" x="212.78" y="70.18" width="3.37" height="102.96"/>
    <rect class="cls-5" x="26.41" y="70.93" width="3.37" height="102.96"/>
    <rect class="cls-5" x="71.15" y="145.4" width="3.37" height="57.68"/>
    <rect class="cls-2" x="188.33" y="159.9" width="3.37" height="57.68" transform="translate(258.46 -70.19) rotate(60)"/>
    <circle class="cls-5" cx="121.78" cy="119.51" r="6.5"/>
    <circle class="cls-3" cx="169.87" cy="94" r="6.5"/>
    <circle class="cls-2" cx="213.87" cy="69.01" r="6.5"/>
    <circle class="cls-5" cx="121.1" cy="65.82" r="6.5"/>
    <circle class="cls-5" cx="121.61" cy="16.23" r="6.5"/>
    <circle class="cls-5" cx="77.87" cy="40.46" r="6.5"/>
    <circle class="cls-5" cx="29.87" cy="69.01" r="6.5"/>
    <circle class="cls-5" cx="72.87" cy="93.01" r="6.5"/>
    <circle class="cls-5" cx="170.21" cy="146.93" r="6.5"/>
    <circle class="cls-3" cx="120.87" cy="174.01" r="6.5"/>
    <circle class="cls-2" cx="213.87" cy="123.01" r="6.5"/>
    <circle class="cls-2" cx="213.87" cy="175.01" r="6.5"/>
    <circle class="cls-5" cx="169.87" cy="200.01" r="6.5"/>
    <circle class="cls-5" cx="120.87" cy="228.01" r="6.5"/>
    <circle class="cls-5" cx="72.87" cy="200.01" r="6.5"/>
    <circle class="cls-5" cx="72.87" cy="147.01" r="6.5"/>
    <circle class="cls-5" cx="28.95" cy="122.4" r="6.5"/>
    <circle class="cls-5" cx="28.1" cy="173.88" r="6.5"/>
    <rect class="cls-5" x="27.45" y="70.29" width=".65" height="105.56"/>
  </g>
</svg>