<?xml version="1.0" encoding="UTF-8"?>
<svg id="Layer_1" xmlns="http://www.w3.org/2000/svg" version="1.1" viewBox="0 0 256 256">
  <!-- Generator: Adobe Illustrator 30.0.0, SVG Export Plug-In . SVG Version: 2.1.1 Build 123)  -->
  <defs>
    <style>
      .st0 {
        fill: #04b2a9;
      }

      .st1 {
        fill: #fff;
        stroke: #fff;
        stroke-miterlimit: 10;
      }

      .st2 {
        fill: #308367;
      }
    </style>
  </defs>
  <g>
    <circle class="st0" cx="128.91" cy="125.11" r="6.5"/>
    <circle class="st0" cx="177" cy="99.61" r="6.5"/>
    <circle class="st0" cx="221" cy="74.61" r="6.5"/>
    <circle class="st0" cx="128.23" cy="71.42" r="6.5"/>
    <circle class="st0" cx="128.74" cy="23.12" r="6.5"/>
    <circle class="st0" cx="85" cy="46.61" r="6.5"/>
    <circle class="st0" cx="37" cy="74.61" r="6.5"/>
    <circle class="st0" cx="80" cy="98.61" r="6.5"/>
    <circle class="st0" cx="177" cy="152.61" r="6.5"/>
    <circle class="st0" cx="128" cy="179.61" r="6.5"/>
    <circle class="st0" cx="221" cy="128.61" r="6.5"/>
    <circle class="st0" cx="221" cy="180.61" r="6.5"/>
    <circle class="st0" cx="177" cy="205.61" r="6.5"/>
    <circle class="st0" cx="128" cy="233.61" r="6.5"/>
    <circle class="st0" cx="80" cy="205.61" r="6.5"/>
    <circle class="st0" cx="80" cy="152.61" r="6.5"/>
    <circle class="st0" cx="35.4" cy="128.29" r="6.5"/>
    <circle class="st0" cx="35" cy="180.61" r="6.5"/>
    <path class="st2" d="M219.15,76.81"/>
    <path class="st2" d="M129.15,126.81"/>
    <path class="st2" d="M176.64,55.68"/>
    <path class="st2" d="M86.64,105.68"/>
    <path class="st2" d="M216.9,72.04"/>
    <path class="st2" d="M127.73,20.56"/>
    <path class="st2" d="M129.5,234.61"/>
    <path class="st2" d="M129.5,131.61"/>
    <path class="st2" d="M221.92,127.25"/>
    <path class="st2" d="M132.76,178.73"/>
    <path class="st2" d="M220.65,180.34"/>
    <path class="st2" d="M131.49,231.82"/>
    <path class="st2" d="M88.17,48.81"/>
    <path class="st2" d="M177.34,100.29"/>
    <path class="st2" d="M129.18,20.92"/>
    <path class="st2" d="M39.66,72.6"/>
    <path class="st2" d="M40.16,76.81"/>
    <path class="st2" d="M129.32,128.29"/>
    <path class="st2" d="M177.5,207.61"/>
    <path class="st2" d="M177.5,104.61"/>
    <path class="st2" d="M220.5,179.61"/>
    <path class="st2" d="M220.5,76.61"/>
    <path class="st2" d="M40.58,76.76"/>
    <path class="st2" d="M129.94,128.35"/>
    <path class="st2" d="M175.48,99.6"/>
    <path class="st2" d="M127.73,72.04"/>
    <path class="st2" d="M178,155.61"/>
    <path class="st2" d="M178,100.61"/>
    <path class="st2" d="M178.13,153.06"/>
    <path class="st2" d="M129.94,179.83"/>
    <path class="st0" d="M221,131.61"/>
    <path class="st0" d="M221,76.61"/>
    <path class="st2" d="M221,183.61"/>
    <path class="st2" d="M221,128.61"/>
    <path class="st2" d="M223.83,179.17"/>
    <path class="st2" d="M176.76,206.34"/>
    <circle class="st0" cx="170.87" cy="46.76" r="6.5"/>
    <rect class="st0" x="27.66" y="152.74" width="105.56" height=".65" transform="translate(233.5 72.63) rotate(90)"/>
    <rect class="st0" x="-17.05" y="128.34" width="105.56" height=".65" transform="translate(164.4 92.94) rotate(90)"/>
    <rect class="st0" x="29.43" y="154.31" width="105.56" height=".65" transform="translate(88.33 -20.39) rotate(30)"/>
    <rect class="st0" x="27.99" y="207.29" width="105.56" height=".65" transform="translate(114.63 -12.57) rotate(30)"/>
  </g>
  <path class="st1" d="M68.93,8.89"/>
  <rect class="st0" x="73.02" y="72.5" width="105.56" height=".65" transform="translate(-19.56 72.66) rotate(-30)"/>
  <rect class="st0" x="30.09" y="47.27" width="105.56" height=".65" transform="translate(-12.7 47.81) rotate(-30)"/>
  <rect class="st0" x="121.83" y="100.96" width="105.56" height=".65" transform="translate(-27.25 100.87) rotate(-30)"/>
  <rect class="st0" x="73.91" y="69.8" width="105.56" height=".65" transform="translate(52.04 -53.95) rotate(30)"/>
  <rect class="st0" x="30.09" y="100.61" width="105.56" height=".65" transform="translate(61.57 -27.91) rotate(30)"/>
  <rect class="st0" x="122" y="47.61" width="105.56" height=".65" transform="translate(47.38 -80.97) rotate(30)"/>
  <rect class="st0" x="122.7" y="154.31" width="105.56" height=".65" transform="translate(-53.81 108.46) rotate(-30)"/>
  <rect class="st0" x="122.79" y="207.66" width="105.56" height=".65" transform="translate(-80.47 115.65) rotate(-30)"/>
  <rect class="st0" x="169.14" y="127.97" width="105.56" height=".65" transform="translate(350.21 -93.63) rotate(90)"/>
  <rect class="st0" x="123.98" y="154.82" width="105.56" height=".65" transform="translate(331.91 -21.61) rotate(90)"/>
  <rect class="st0" x="76.26" y="181.12" width="105.56" height=".65" transform="translate(310.49 52.41) rotate(90)"/>
</svg>