<?xml version="1.0" encoding="UTF-8"?>
<svg id="Layer_2" xmlns="http://www.w3.org/2000/svg" version="1.1" viewBox="0 0 199.02 225.03">
  <!-- Generator: Adobe Illustrator 30.0.0, SVG Export Plug-In . SVG Version: 2.1.1 Build 123)  -->
  <defs>
    <style>
      .st0, .st1, .st2, .st3 {
        stroke-width: 3px;
      }

      .st0, .st1, .st2, .st3, .st4 {
        fill: #00ffc2;
      }

      .st0, .st2, .st4 {
        stroke-miterlimit: 10;
      }

      .st0, .st3, .st4 {
        stroke: #09cfd8;
      }

      .st1, .st2 {
        stroke: #008cff;
      }

      .st1, .st3 {
        stroke-miterlimit: 10;
      }
    </style>
  </defs>
  <g id="Layer_1-2">
    <rect class="st4" x="192.99" y="60.31" width=".65" height="105.56"/>
    <g>
      <rect class="st4" x="148.41" y="87.17" width=".65" height="105.56"/>
      <g>
        <g>
          <g>
            <rect class="st4" x="145.88" y="-20" width=".53" height="105.56" transform="translate(44.68 142.95) rotate(-60)"/>
            <g>
              <rect class="st4" x="53.4" y="86.59" width=".5" height="105.56" transform="translate(-93.88 116.15) rotate(-60)"/>
              <rect class="st4" x="52.01" y="139.54" width=".44" height="105.56" transform="translate(-140.44 141.39) rotate(-60)"/>
              <rect class="st4" x="44.46" y="57.43" width="105.56" height=".51" transform="translate(-15.81 56.35) rotate(-30)"/>
              <rect class="st4" x="93.29" y="85.96" width="105.56" height=".43" transform="translate(-23.52 84.58) rotate(-30)"/>
              <rect class="st4" x="97.76" y="2.14" width=".65" height="105.56" transform="translate(1.49 112.41) rotate(-60)"/>
              <rect class="st4" x="94.07" y="139.12" width="105.56" height=".53" transform="translate(-50.02 92.1) rotate(-30)"/>
              <rect class="st4" x="93.5" y="192.09" width="105.56" height=".49" transform="translate(-76.57 98.91) rotate(-30)"/>
            </g>
          </g>
          <rect class="st4" x="51.51" y="85.09" width=".65" height="105.56"/>
        </g>
        <rect class="st4" x="100.12" y="113.47" width=".65" height="105.56"/>
      </g>
    </g>
    <g>
      <rect class="st3" x="139.7" y="177.44" width="57.68" height="3.37" transform="translate(-66.98 108.27) rotate(-30)"/>
      <circle class="st0" cx="7.48" cy="112.8" r="6.5"/>
      <g>
        <rect class="st2" x="49.67" y="135.79" width="3.37" height="57.68"/>
        <g>
          <rect class="st1" x="119.38" y="39.57" width="3.37" height="57.68" transform="translate(1.28 139.05) rotate(-60)"/>
          <rect class="st1" x="73.26" y="176.73" width="3.37" height="57.68" transform="translate(-140.55 167.69) rotate(-60)"/>
          <g>
            <rect class="st1" x="1.44" y="31.04" width="105.56" height="3.37" transform="translate(-9.1 31.49) rotate(-30)"/>
            <g>
              <rect class="st1" x="54.72" y="33.3" width="3.37" height="105.56" transform="translate(-46.35 91.89) rotate(-60)"/>
              <circle class="st2" cx="51.4" cy="83.41" r="6.5"/>
              <g>
                <circle class="st2" cx="100.14" cy="6.62" r="6.5"/>
                <circle class="st2" cx="51.4" cy="190.41" r="6.5"/>
                <g>
                  <rect class="st2" x="147.05" y="82.77" width="3.37" height="57.68"/>
                  <rect class="st1" x="97.09" y="149.36" width="57.68" height="3.37" transform="translate(-58.65 83.2) rotate(-30)"/>
                  <rect class="st1" x="72.06" y="121.53" width="3.37" height="57.68" transform="translate(-93.35 139.05) rotate(-60)"/>
                  <rect class="st2" x="191.3" y="60.57" width="3.37" height="102.96"/>
                  <rect class="st2" x="4.94" y="61.32" width="3.37" height="102.96"/>
                  <circle class="st2" cx="56.4" cy="30.85" r="6.5"/>
                  <circle class="st2" cx="8.4" cy="59.41" r="6.5"/>
                  <g>
                    <g>
                      <g>
                        <circle class="st2" cx="99.4" cy="164.41" r="6.5"/>
                        <g>
                          <circle class="st2" cx="100.31" cy="109.91" r="6.5"/>
                          <g>
                            <circle class="st2" cx="99.63" cy="56.22" r="6.5"/>
                            <g>
                              <circle class="st2" cx="148.4" cy="84.4" r="6.5"/>
                              <circle class="st2" cx="148.74" cy="137.32" r="6.5"/>
                              <g>
                                <circle class="st2" cx="192.4" cy="59.41" r="6.5"/>
                                <circle class="st2" cx="192.4" cy="113.41" r="6.5"/>
                                <circle class="st2" cx="192.4" cy="165.41" r="6.5"/>
                              </g>
                              <circle class="st2" cx="148.4" cy="190.41" r="6.5"/>
                            </g>
                          </g>
                        </g>
                      </g>
                      <circle class="st2" cx="99.4" cy="218.41" r="6.5"/>
                    </g>
                    <circle class="st2" cx="51.4" cy="137.41" r="6.5"/>
                  </g>
                </g>
                <circle class="st2" cx="6.62" cy="164.27" r="6.5"/>
              </g>
            </g>
          </g>
        </g>
      </g>
    </g>
  </g>
</svg>