<?xml version="1.0" encoding="UTF-8"?>
<svg id="Layer_2" data-name="Layer 2" xmlns="http://www.w3.org/2000/svg" viewBox="0 0 448.42 296.3">
  <defs>
    <style>
      .cls-1, .cls-2, .cls-3, .cls-4 {
        fill: none;
        stroke: #676767;
        stroke-width: .25px;
      }

      .cls-1, .cls-4 {
        stroke-miterlimit: 10;
      }

      .cls-2, .cls-3 {
        stroke-linejoin: round;
      }

      .cls-3, .cls-4 {
        stroke-linecap: round;
      }
    </style>
  </defs>
  <g id="Layer_1-2" data-name="Layer 1">
    <g>
      <g>
        <g>
          <path class="cls-2" d="M354.01,150.83c-.3,2.45-50.68,51.81-44.53,54.53,31.84,45.14,56.7-9.17,78.9-30.94,4.34-10.45-27.67-25.61-34.37-23.59Z"/>
          <path class="cls-3" d="M313.39,205.83c26.87,32.87,51.43-23.61,69.21-37.5"/>
          <path class="cls-2" d="M353.38,155.05c-19.03,23.65-26.33,15.5,1.87,31.25,8.11,5.31,18.22-13.59,23.12-17.34,3.97-3.36-24.76-16.05-25-13.91Z"/>
          <g>
            <path class="cls-3" d="M355.57,160.05c-13.19,16.92-19.5,11.69,1.25,23.59,17.01-12.28,22.48-19.14-1.25-23.59M328.7,185.21c-4.97-2.8-3.17,2.45-2.97,4.37-3.42,2.98,1.52,5.39,3.12,1.56,4.73,1.03,6.41-.09,4.37-4.53,3.73-6.5-2.3-2-4.53-1.41M340.57,194.74c3.69.05,3.27,5.98,0,5.31-3.55.11-3.72-5.44,0-5.31M348.07,194.27c10.5,6.59-10.7,5.97.16,0M323.23,199.58l4.22.31M328.07,203.02h4.69M330.57,207.08l-.62,5.94M332.76,207.24l-.62,7.19M335.26,207.39l-.78,7.19M337.6,207.39l-.78,7.19M339.95,207.55l-.78,5.94M148.09,265.2c-13.67-31.36-26.2-26.36-54.84-19.53-9.91,2.25,13.56,29.25,15.16,30.62M92.78,249.89c16.45,32.89,24.39,19.56,53.28,13.91M97.31,250.83c14.09,23.81,14.03,20.11,43.43,7.97-.86-.42-13.03-17.62-14.37-16.25-.83,1.27-32.25,4.5-29.06,8.44M176.83,285.67c-34.08-19.76-26.08-26.34-68.28-8.59M108.4,277.07"/>
            <path class="cls-3" d="M149.02,271.76l-36.4,9.37"/>
            <path class="cls-3" d="M124.96,281.92c2.03-.69,4.91-1.27,6.25.94,2.58-1.05,5.92-1.19,7.66,1.41-8.27,1.37,4.11,2.86-5.47,4.53-2.81-3.39-7.44-.23-10.31-3.59,2.62-.95,5.52-.5,1.87-3.28h0ZM147.93,279.42c2.08.11,3.17.62,3.28,1.56-.69,4.19-11.55-.72-3.28-1.56M153.87,276.29c12.03,3.47-11.53,3.25,0-.16M151.05,290.82c3.62-.27,3.25,2.72,0,2.19-4.03-.27-2.8-2.12,0-2.19M158.87,288.48c9.01,3.09-9.3,2.33-.16,0M110.9,276.92c1.42-.03,1.42,3.16,0,3.12-1.42.03-1.42-3.16,0-3.12ZM68.87,178.49h-.62M76.06,171.14l-.31.47M65.75,178.17c-2.94-2.8,6.98-12.67,9.84-9.69M68.87,181.46c3.02,3.05,12.78-6.7,9.84-9.69M68.87,178.49c2.31-.7,6.53-4.64,6.72-6.72"/>
            <path class="cls-3" d="M68.87,178.49c2.31-.7,6.53-4.64,6.72-6.72M77.31,170.52c6.84-2.03,5.08,5.28.31,10-6.25,8.76-14.14-.27-8.59,1.09"/>
            <path class="cls-3" d="M68.87,178.49c2.81-.89,6.55-4.92,7.03-7.34M67.62,180.05l-1.87-1.72c.62.42,1.45.52,2.5.31"/>
            <path class="cls-3" d="M78.87,171.93c-4.31-7.41-2.97,5.94-10,6.41"/>
            <path class="cls-3" d="M68.87,178.49c2.31-.7,6.53-4.64,6.72-6.72M414.63,11.16l-.31-.31M421.97,13.19h-.47M413.69,9.12c.58-2.91,10.92.05,9.69,2.81M412.75,12.41c-1.14,2.84,9.01,5.92,9.69,2.97M414.63,11.16c1.72,1.52,4.48,2.41,6.87,2.19"/>
            <path class="cls-3" d="M414.63,11.31c1.77,1.31,4.53,2.27,6.87,2.03"/>
            <path class="cls-3" d="M422.91,13.97c6.84,9.22-20.56,1.17-9.84-2.97l-.31,1.56M414.63,11.31c1.89,1.42,4.86,2.33,7.34,1.87M413.07,11l.62-1.87c-.2.62-.05,1.2.47,1.72"/>
            <path class="cls-3" d="M422.44,15.37c3.2-5.37-4.58.05-7.66-4.06"/>
            <path class="cls-3" d="M414.63,11.31c1.77,1.31,4.53,2.27,6.87,2.03M347.29,8.19l-.47-.16M354.95,7.09l-.31.31M345.73,6.63c-.23-3.22,10.12-4.22,10.31-1.09M346.2,9.91c-.03,3.2,10.84,2.02,10.16-1.09M347.45,8.19c2.28.81,5.23.14,7.19-.78"/>
            <path class="cls-3" d="M347.29,8.19c2.28.81,5.23.14,7.19-.78"/>
            <path class="cls-3" d="M356.04,7.41c9.92,5.8-18.51,9.08-10.16,1.09v1.41M347.29,8.19c2.47.83,5.62.17,7.66-1.09M345.88,8.66l-.16-2.03c0,.52.42.98,1.25,1.41"/>
            <path class="cls-3" d="M356.2,8.97c.75-6.12-4.11,2.05-8.91-.78"/>
            <path class="cls-3" d="M347.29,8.19c2.28.81,5.23.14,7.19-.78M319.95,96.15h-.62M330.26,96.15l-.31.31M317.76,94.27c-.58-3.58,12.61-5.34,12.66-1.25M318.23,98.49c.14,3.92,13.22,2.34,12.81-1.25M319.95,96.15c2,1,6.75.67,8.75-.94"/>
            <path class="cls-3" d="M319.95,96.15c2,1,6.75.67,8.75-.94M330.73,95.37c12.16,7.3-22.83,11.19-12.66,1.25l.31,1.72"/>
            <path class="cls-3" d="M319.95,96.15c2.25,1.09,7.11.59,9.22-1.25M317.92,96.77l-.16-2.5c0,.73.52,1.3,1.56,1.72"/>
            <path class="cls-3" d="M330.89,97.24c1.39-7.48-5.45,2.28-10.94-1.09"/>
            <path class="cls-3" d="M319.95,96.15c2,1,6.75.67,8.75-.94"/>
          </g>
        </g>
        <path class="cls-1" d="M405.25,293.95c-1.8-6.89,4.64-13.59,11.72-11.25"/>
        <g>
          <g>
            <path class="cls-3" d="M407.29,291.45c0-3.75,3.12-6.87,7.03-6.87M194.02,30.84c3.12,1.98,5.73,4.33,7.81,7.03"/>
            <path class="cls-3" d="M193.55,37.87c2.5-2.61,5.31-4.73,8.44-6.41M201.52,71.62c2.92,1.98,5.47,4.33,7.66,7.03"/>
            <path class="cls-3" d="M201.05,78.49c2.39-2.5,5.16-4.58,8.28-6.25M16.22,13.34c1.67,2.39,2.81,5,3.44,7.81"/>
            <path class="cls-3" d="M13.57,18.5c2.7-1.14,5.52-1.87,8.44-2.19M7.32,92.71c3.21,1.76,6.11,4.02,8.59,6.72"/>
            <path class="cls-3" d="M7.47,100.21c2.2-2.98,4.9-5.57,7.97-7.66M64.81,232.86c3.12,3.12,5.73,6.77,7.81,10.94"/>
            <path class="cls-3" d="M62.31,241.61c1.25-1.56,9.37-5.31,12.19-5.94"/>
            <path class="cls-3" d="M346.67,248.01c1.25,1.25,3.44,4.37,3.91,5.62"/>
            <path class="cls-3" d="M345.42,252.39c1.87-1.25,3.91-2.23,6.09-2.97"/>
            <path class="cls-3" d="M217.46,213.8c3.05.86,5.94,2.17,8.59,3.91"/>
            <path class="cls-3" d="M219.02,220.05c1.3-2.91,3.09-5.55,5.31-7.81"/>
            <path class="cls-3" d="M263.7,124.43c1.56,3.12,2.55,6.45,2.97,10"/>
            <path class="cls-3" d="M259.64,130.05c3.55-.94,7.08-1.3,10.62-1.09M144.02,233.01c1.56,3.12,2.55,6.45,2.97,10"/>
            <path class="cls-3" d="M139.96,238.64c1.41-.78,8.28-1.41,10.47-1.09M358.38,23.81c4.55-.95,5.86.22,5.47,4.84-4.55.94-5.86-.22-5.47-4.84ZM164.96,110.68c3.58-8.7,5.58-9.28,13.28-3.91-3.55,8.56-5.67,9.06-13.28,3.91ZM5.44,55.68c3.64-2.61,5.56-2.56,7.19,1.87-3.69,2.95-5.42,2.5-7.19-1.87ZM7.32,155.21c4.52-1.34,5.87-.34,5.78,4.37-4.33,1.22-5.75.09-5.78-4.37ZM163.55,201.61c-.05-3.05.94-3.87,3.91-3.12.05,3.05-.94,3.87-3.91,3.12ZM181.83,162.55c-.11-2.95.59-3.91,3.59-3.12.11,2.95-.59,3.91-3.59,3.12ZM203.71,205.2c3.48-1.31,4.92-.67,5.31,3.12-3.44,1.42-4.78.48-5.31-3.12ZM274.95,175.99c3.47-1.5,4.72-.78,5.16,2.97-3.47,1.5-4.72.78-5.16-2.97ZM384.94,190.83c3.47-1.39,4.73-.55,5.16,3.12-3.59,1.59-4.7.62-5.16-3.12ZM322.76,164.27c3.47-1.39,4.73-.55,5.16,3.12-3.59,1.59-4.7.62-5.16-3.12ZM419.63,220.98c3.47-1.5,4.72-.78,5.16,2.97-3.34,1.3-4.75.69-5.16-2.97ZM260.42,76.46c7.41-2.7,9.08-2.03,10.16,5.94-7.55,2.92-9.05,2.11-10.16-5.94ZM172.93,273.17c-.11-5.66,1.58-6.97,7.03-5.47,0,5.41-1.77,6.86-7.03,5.47ZM122.62,88.65c-7.98-2.78.77-3.89,3.75-6.87-1.22,2.91,3.03,12.95-3.75,6.87ZM287.61,12.56c-6.53,6.7-3.67-3-5-7.34,3.92,2.81,13.34,3.08,5,7.34ZM424.94,33.19c-6.55,1.98-1.53-3.09-1.09-6.56,1.72,2.98,8.02,6.61,1.09,6.56ZM324.32,122.71c-8.8,3.19-2.09-4.05-1.41-8.59,2.11,4.2,11,8.94,1.41,8.59ZM372.44,51.47c-8.78,2.91-2.11-4.09-1.25-8.59,2.16,4.08,10.41,8.7,1.25,8.59ZM203.39,58.34c-8.8,3-2.08-4.45-1.56-9.06,1.97,4.17,10.61,8.67,1.56,9.06ZM284.01,239.26c-6.89.59-.75-3.45.62-6.56.8,3.31,6.05,8.56-.62,6.56ZM188.4,248.01c6.08-.09,6.08,9.47,0,9.37-6.08.09-6.08-9.47,0-9.37ZM298.7,211.14c6.08-.09,6.08,9.47,0,9.37-6.08.09-6.08-9.47,0-9.37M236.99,149.58c6.08-.09,6.08,9.47,0,9.37-6.08.09-6.08-9.47,0-9.37M10.44,28.19c6.08-.09,6.08,9.47,0,9.37-6.08.09-6.08-9.47,0-9.37ZM13.25,265.67c5.47-.08,5.47,8.51,0,8.44-5.47.08-5.47-8.51,0-8.44M149.18,103.18c5.58-.08,5.58,8.67,0,8.59-5.58.08-5.58-8.67,0-8.59M201.52,105.68c5.47-.08,5.47,8.51,0,8.44-5.48.09-5.48-8.53,0-8.44M158.55,93.18c16.19,9.53-16.03,10.64,0,.16M139.02,90.84c2.95-.08,2.87,5.44,0,4.69-3.05.05-3.05-4.73,0-4.69M85.9,89.28c9.73,6.48-9.09,4.5.16,0M380.26,62.56c4.05-.06,4.05,6.31,0,6.25-4.05.06-4.05-6.31,0-6.25Z"/>
            <path class="cls-3" d="M186.05,240.51c30.62-9.12,25.08-34.51-7.19-25.94-31.86,9.47-24.2,34.39,7.19,25.94"/>
            <path class="cls-3" d="M181.05,223.02c11.83.34-10,6.36,0,0"/>
            <path class="cls-3" d="M180.58,221.14c9.36-3.08,11.59,4.84,2.03,7.34-9.61,2.72-11.59-4.61-2.19-7.5M174.8,221.77l-3.44-1.87M178.71,219.89l-1.41-2.66M183.55,230.36l2.66,7.81M188.4,227.7l9.37,4.37"/>
            <path class="cls-3" d="M159.49,138.65c37.98-52.5,33.34,3.14,61.71,20,22.56,12-65.6-6.83-61.71-20M190.58,126.77c-6.41,0-16.25,8.28-17.81,10.16M163.4,135.68c7.19,10.05,23.28,17.83,49.37,22.34M176.83,141.46c1.31-2.45,8.84,1.28,6.56,3.44-.98,2.42-7.66-1.09-6.56-3.44M190.11,138.33c1.95-3.23,9.75,2.11,8.12,5-1.91,2.97-9.73-2.27-8.12-5M189.49,131.46c.69-.22,1.86.44,1.41,1.09-.56,0-1.89-.44-1.41-1.09M180.58,136.77c.69-.22,1.86.44,1.41,1.09-.67.27-2.05-.64-1.41-1.09M191.52,147.71c.56-.22,1.84.28,1.56,1.09-.69.2-2.06-.33-1.56-1.09M202.46,151.61c7.66-4.44,5.03,7.7.16,0M158.09,23.97c-30,17.8-13.76,22.4,4.69,40.15,6.19,1.56,19.2-9.91,24.84-15.31,4.48-4.48-26.89-26.26-29.53-24.84"/>
            <path class="cls-3" d="M143.09,43.5c-4.2-9.28,19.84,16.61,20,15.31l.31,3.12M146.99,35.69c13.05-16,22.11-.02,33.75,7.66-14.97,19.8-20.39,1.73-33.75-7.66ZM163.4,59.12c2.48-3.42,5.31-1.08,6.56,3.91M171.99,58.34l12.19-10.62M160.43,33.19c-.17-4.08-5.8,1.37-6.56,2.66-.09,3.25,5.62,1.73,3.44-.47M157.15,39.28c6.48-8.03,11.89-2.83,2.66,2.97M159.8,37.09l3.12,2.5M161.21,43.81c1.61-.03,7.75-10.61,5.62-2.5,8.8-3.16-2.05,3.45-2.66,5M173.87,43.81c-1.87-3.8-10.55,4.3-5.78,5.78M170.74,46.93l-2.03-1.87M21.85,80.99c-21.15,9.76-.14-16.89,8.44-10.47,17.87-16.22,26.11-12.33,4.69,3.75"/>
            <path class="cls-3" d="M35.91,78.96c.11,3.06.89,13.06,2.97,15.31-.31.62-8.12,10.16-10.31,5.31-3.23-6.59,3.59-19.78-6.56-18.44,4.25-3.45,15.36-13.26,13.91-2.19ZM15.6,76.46c-.05-2.39,1.55-6.72,3.28-2.5M26.22,68.65c2.8-2.27,6.95-6.2,10.47-2.81M34.66,64.9c5.09-.95,26.42-26.65,29.06-15.94l-15,11.41"/>
            <path class="cls-3" d="M56.53,48.5c.31-2.22.98-6.66,2.81-2.19M35.91,78.96c5.91-3.7,3.53-2.42,1.09-6.25M35.44,98.18c.72,6.62-4.42,18.83,10,10.31M305.26,23.03c-10.98-14.8-28,9.06-10.47,14.53M320.73,43.81c12.05,14.3-16.3,24.84-16.56,6.09"/>
            <path class="cls-3" d="M317.45,43.97c8.28,4.72.67,17.61-7.47,12.66-8.41-4.77-.39-17.9,7.62-12.66M320.73,43.65l-15.47-20.62M304.01,49.9l-9.37-12.5M312.76,45.84c2.62,6.97-6.87-.52-.16.16M317.29,47.25c1.77,1.09.05,3.47-1.56,2.5-1.69-.84.14-4.27,1.56-2.5M311.51,50.84c.83.62,1.05,1.36.62,2.19-2.78,3.64-4.08-4.42-.62-2.03M316.2,52.25c4.09,5.87-8.03.42.16,0M298.7,28.5c3.66-1.45.89-4.95-1.56-2.03M296.51,30.22c-2.64,2.94-5.12-.52-1.41-2.03"/>
            <path class="cls-3" d="M295.26,28.03c-3.42-2.61.41-5.47,2.03-1.56M296.67,30.06c1.5,3.97,5.11,1.02,2.19-1.72M300.42,37.25l2.81.16M303.07,40.84l2.81.16M312.92,33.19c-.23-5.55,15.62.7,12.97-7.34M413.85,73.03c-1.33-1.67-.34-21.08-5.94-15.94-.73,1.59-16.92,17.83-6.41,14.69,5.83-10.81,9.48,10.37,12.34,1.25"/>
          </g>
          <path class="cls-2" d="M406.82,65.21l1.09-1.56c1.59,1.11.53,3.61-1.09,1.56Z"/>
        </g>
        <path class="cls-1" d="M400.72,271.45c-4.42-3.97-5.48,1.19-10.16,5-1.25-9.37-1.25-8.59-3.12-9.37-3.69-1.37-3.53.53-2.81,5.62,3.5,2.5-2.22-7.72,2.97-4.22.62,0,.78.31,2.19,10.78,8.78-9.83,16.73-12.64.62,3.28-2.89,9.94-1.02,8.58-4.69,6.72,1.64-2.37,2.73-16.3-.62-14.37l1.56,6.87c-5.97,15.78,4.75,9.7,4.84,1.56,9.37-10.16,10.16-10.62,9.22-12.03"/>
        <g>
          <g>
            <path class="cls-3" d="M269.48,30.06c1.42-.02,1.42,2.2,0,2.19-1.42.02-1.42-2.2,0-2.19Z"/>
            <path class="cls-3" d="M20.28,155.52c5.39,1.81,3.91,11.3,9.22,4.06,9.37,1.94,1.14-3.75,4.53-8.91-16.97-2.42-2.44-4.83-13.75,4.84M154.65,252.08c4.25,3.94-.95,12.33,6.72,7.19,5.53,2.73,5.3,3,4.53-3.12,7.41-5.97-1.75-1.89-2.97-8.12-1.89-2.61-4.16,4.78-8.28,4.06h0ZM302.76,106.77c2.59,2.17.16,7.52,4.53,4.69,5.58,3.2,1.17-1.62,4.53-3.75,1.86-1.06-1.91-1.41-2.5-1.56-.86-.62-1.19-3.81-2.5-2.19-.69,2.91-2.28,1.78-4.06,2.81M219.17,143.18c3.12,2.44.06,9.23,5.31,5.47,6.5,3.98,1.77-2.37,5.78-5.16-10.41-4.52.11-5.89-11.09-.31M241.2,28.34c5.67,7.48-3.92,6.58,9.06,5.94-1.92-4.59,6-5.91-1.41-6.87-2.64-6.69-3.11.77-7.66.78M296.51,168.33c1.58,6.92-5.77,9.48-2.66,11.56,7.45-1.08,6.41,11.53,11.41.94,11.45-.84.12-4.34,2.34-12.19-3.92,1.25-7.09,1.89-11.09-.31"/>
          </g>
          <path class="cls-2" d="M302.14,162.71c17.03-.25,17.03,26.5,0,26.25-17.03.25-17.03-26.5,0-26.25Z"/>
          <g>
            <path class="cls-3" d="M290.11,182.08l-8.75,11.87,8.59-.16,2.81,7.5,8.28-12.19M389.01,118.8c-19.81,21.34,7.45,36.76,17.33,10.92l-17.33-10.92ZM386.97,122.24c-4.58-5.33-10.92-2.12-3.75,5.94M404.16,133.02c6.66,1.98,6.53,9.01-3.75,6.09M384.01,146.15c-1.56-1.09-3.91-.62-5,1.09,2.64,2.39,10.47,6.06,5-.94"/>
            <path class="cls-3" d="M385.88,154.43l-10.16-6.56c1.2-3.39,12.91,4.03,10.16,6.56ZM386.35,142.4l-2.5,3.75M396.04,131.62c-2.69.94-3.83.42-4.06-2.5-4.91-.12,1.27,4.55-4.84,4.53-.09,3,1.73,2.05,3.75,1.56.44,2,.5,4.06,3.12,2.81-2.73-5.52,4.11-1.89,2.03-6.41h0ZM13.25,199.27l-7.81-12.03M5.6,187.24c4.16-3.53,6.14-3.22,8.28,1.87-4.08,3.33-6.16,3.08-8.28-1.87Z"/>
            <path class="cls-3" d="M12.32,190.05c.62,3.75,4.78-1.2,6.25-1.56-6.37-.59-.05-8.11-6.87-2.81M13.88,188.96l-.47,2.81"/>
            <path class="cls-3" d="M380.88,207.39c-1.61,2.02-12.89-2.64-7.5,2.5,1.34.75-3.48,1.27-2.81,2.19l2.81,2.19c-6.14,1.28.87,4.81,3.28,2.66,1.42,1.95,5.72,2.53,6.41.16-5.41-1.97,1.39-4.94,4.06-1.09,3.89-2.08,4.2-1.05.47-3.91,7.52-3.81-5.03-2.42-6.72-4.69h0ZM50.59,275.2c-.22.27-.89,3.28-1.56,2.81-3-3.98-5.08,2.92-1.41,3.44.12,2.28-1.61,4.67,2.03,5.94-2.75,3,2.53,7.33,2.97,2.66.14-.97,2.94,2.22,3.44,1.72,3.09-3.23-4.25-5.78-.16-8.28,3.53.75,1.64,3.98,3.91-1.56.11-.86-3.31-2.08-2.97-2.97,2.89-2.41-2.73-7.23-3.12-1.87-.33-.08-2.73-2.52-3.12-1.87h0Z"/>
            <path class="cls-3" d="M294.79,246.61c12.81-1.69,12.81,19.03,0,17.34-12.81,1.69-12.81-19.03,0-17.34M291.36,255.36c-.98-7.42,5.27-.34,8.91.31-3.55.61-10.78,7.02-8.91-.31ZM416.82,157.71c5.5,1.67,1.78,14.23,2.81,17.81.86,1.92-12.26,7.62-13.12,8.59-11.03,7.08-10.8-18.09-5.16-20.15M405.25,161.93l7.5-4.06"/>
          </g>
          <path class="cls-2" d="M403.38,167.55c-10.69-17.58,17.94-28.51,13.42-7.89-5.48,6.69-2.91-5.42-4.94-7.05-9.53-1.86-4.03,13.62-8.5,14.94h.02Z"/>
          <g>
            <path class="cls-3" d="M400.25,167.86c2.66,5.34,13.86-4.03,17.34-5.47M412.44,170.21c-3.47,2.5.55,5.11-.47,8.28,2.27-.25,4.11-9.36.47-8.44M359.32,64.43v-.78M356.04,59.28c-6.56-4.92-23.01,9.45-15.94,16.41M358.54,65.21c-6.31-.33-12.7,4.81-15.47,10.31M359.01,65.21c12.94,6.37-11.87,25.64-16.25,13.75M355.73,61.31c-11.58-3.58-20.2,22.61-12.66,14.06M353.23,74.59c5.11-3.56,7.64.27,2.19,3.44-5.36,3.53-7.52-.3-2.19-3.44M339.48,75.06c-19.83-4.58-2.33-35.28,8.12-15.62"/>
            <path class="cls-3" d="M339.01,68.96c-6.44-4.5,1.75-19.5,5.78-7.81M332.29,56.93c-7.06.41-4.14,19.34,2.81,16.56M359.48,63.5c-.42,2.66-3.5,1.06-5.47,2.34,10.06-16.47-18.59-36.11-19.22-11.72-12.28-18.92,39.12-18.39,24.69,9.37"/>
            <path class="cls-3" d="M359.48,63.5c.94.52,1.36,1.36,1.25,2.5M347.13,43.5c-7.81,1.56-8.59,7.81-8.44,9.69M343.38,80.37s-11.87,5.62-20.62.78M320.1,76.46c13.37,6.55-11.62,7.87,0-.16M338.38,58.18c.62.16,3.91,2.66,2.97,6.25"/>
          </g>
          <path class="cls-3" d="M32.47,38.34c-6.67,3.08-12.33-.81-8.44-7.03,8.8-2.36,6.42.12,8.44,7.03Z"/>
          <path class="cls-2" d="M24.35,39.9c7.56-2.52,9.09-1.47,10,6.41-7.58,2.42-9.25,1.67-10-6.41Z"/>
          <g>
            <path class="cls-3" d="M26.22,48.03c-1.47-.11-7.87,3.14-8.44.47-4.7-11.5,9.61-9.75,8.44-.47ZM40.59,44.9c-7.33,2.89-7.25-.55-8.44-6.72,5.78-3.5,12.66.83,8.44,6.56M34.66,54.75c-8.61,2.59-6.36.28-8.44-6.56,6.14-3.17,12.37,0,8.44,6.56M104.03,78.65l-6.25-2.34c1.61-10.28,11.16-4.37,6.25,2.34ZM109.96,80.84c-5.92-1.16-6.5-3.3-3.75-8.44,6.78,2.17,6.27,2.05,3.75,8.44ZM101.68,84.74c-6.69-2.19-6.53-1.94-3.91-8.44,5.73,1.3,6.89,3.22,3.91,8.44Z"/>
            <path class="cls-3" d="M106.06,86.46c-5.87-.75-4-3.94-2.34-7.97,5.53.37,8.14,6.08,2.34,7.97"/>
          </g>
          <g>
            <path class="cls-3" d="M159.34,75.84c-4.44,16.59-25.72,7.14-30.78-3.59,3.11-15.58,28.2-7.95,30.78,3.59"/>
            <path class="cls-3" d="M148.56,83.65c-40.34-14.62-2.22-32.98,10.78-7.81M137.77,76.46c3.02-4.8,7.19-8.08,12.5-9.84M151.84,75.68c7.5,19.12,25.97-8.62,18.28,16.56M144.34,69.43l2.66,1.87M150.12,72.4c7.12,10.09-11.16-5.39.16,0M279.01,59.12c-16.56,8.33-19.81-6.94-7.03-14.37,13.23-4.8,25.19,6.31,7.03,14.37"/>
            <path class="cls-3" d="M274.64,60.68c.2,22.89,23.97,10.23,7.34-2.81M269.01,50.06c.12,2.25-2.34,3.91-4.37,2.97.47-1.98,3.59-8.28,4.37-2.97M275.58,49.12c5.47-.08,5.47,8.51,0,8.44-5.47.08-5.47-8.51,0-8.44ZM285.89,46.15c-2.2,3.84-8.37,1.69-7.81-2.66,3.12.11,5.73.98,7.81,2.66M439.47,42.4c11.53,2.75,3.3,22.8-5.78,19.06-11.45,6.25-18.61-22.9-.78-17.65"/>
            <path class="cls-3" d="M430.57,46.93c1.56.47,3.25.3,4.69-.47M432.75,46.93s.94-4.53-1.87-7.19M433.06,44.59s-1.25-8.44,8.12-8.91c0,0,3.28,7.81-8.12,8.91M428.38,58.18c-1.56-1.56-2.61-3.33-3.12-5.31M424.94,49.43l.31-1.25M292.45,103.65c.17,18.25-28.48,18.09-28.12-.14-.11-9.37,9.59-16.33,18.44-13.3-4.7,3.73-2.8,7.55,2.66,8.44,5.12-5.22,6.39-1.25,6.87,5"/>
            <path class="cls-3" d="M274.17,93.49l1.87-.47M267.3,104.74c-.17-3.66,1.11-6.98,3.91-9.37M289.48,95.21c3.23-3.66-4.39-9.44-6.87-4.84"/>
            <path class="cls-3" d="M283.86,89.12c-.78,1.87,1.25,5.62,6.09,5M286.98,91.46c-.81-8.02,4.84-5.78,10.78-5.31"/>
          </g>
          <path class="cls-2" d="M297.76,84.12c-4.34-.87-7.5-.05-1.72-3.44-3.39-4,2.72-.2.94-8.44,1.94,1.41,4.78,5,7.03,2.03-.95,4.23,4.45.94,6.25,1.09-.97,1.84-5.36,4.58-1.41,5.94-4.91-.94-.8,4.2-.78,6.25-3.81-2.09-5.87-4.87-5.47,1.56-3.62-6.78-4.53,2.67-4.84-5Z"/>
        </g>
      </g>
      <g>
        <g>
          <path class="cls-3" d="M186.21,63.81c28.01,16.2-25.45,20.84,0,.16M186.21,67.09c5.77-1.17,7.47,7.91,1.67,8.91-5.77,1.17-7.47-7.91-1.67-8.91M189.8,78.03c.31.23,1.27,4.41,1.41,4.84M186.21,79.12c-.2.08,1.22,4.64,1.25,4.84M192.15,86.46c6.44,17.72-1.37,18.5-3.75,1.25"/>
          <path class="cls-3" d="M192.15,86.46c-1.58.19-5.36,2.47-6.09-.16-1.55-4.58,11.91-3.77,6.09.16M202.77,95.84c-7.27,2.73-8.7,1.95-9.69-5.78,5.31-2.05,13.37-2.19,3.91,3.28,2.08.17,6.19-.97,5.78,2.5Z"/>
          <path class="cls-3" d="M144.02,5.38c-8.86-2.95-14.59,5.69-18.12,12.34,16.36-2.27.53,6.33-.16,11.87,42.86-31.94-3.06-7,18.28-24.22ZM50.28,22.56c17.23-8.97,20.7-.5,13.12,14.69-7.3-3.3-17.94-3.78-13.12-14.69Z"/>
          <path class="cls-3" d="M48.88,31.47c4.48-1.81,15.22-6.91,19.69-9.06M50.28,22.56c5.72,8.23,4.67,5.53,6.25-2.19,5.75,3.59,7.75,7.83,5-2.19"/>
          <path class="cls-3" d="M63.09,24.9c.33,12.78,1.81,14.7-7.97,3.91"/>
          <path class="cls-3" d="M11.07,289.89c5.5,2.37,18.89-.41,20.62,1.56"/>
          <path class="cls-3" d="M11.22,289.89c6,.33,15.22,3.5,20.31-.31M16.69,292.85c1.02,0,1.02,1.58,0,1.56-1.02,0-1.02-1.58,0-1.56ZM24.97,293.32c1.42-.02,1.42,2.2,0,2.19-1.42.02-1.42-2.2,0-2.19ZM24.35,278.48l2.97-5.16M30.75,282.07l2.97-5.16M38.09,275.51c-2.36,4.42-7.69-.91-10.48-1.95-9.09-10.36,14.3-6.19,10.48,1.95M30.75,267.23l3.12-6.87c6.11,3.5,9.8,4.22,3.44,10.62M23.25,280.98c-.81.55,6.12,4.78,5.78,3.44M34.5,263.01c.31,0,.47.2.47.62-.03,1.25-2.11-.27-.47-.62M37.47,265.82c.31,0,.47.16.47.47-.06,1.86-2.14-.64-.47-.47M34.34,266.61c2.56,1.08-2.55,1.53.16,0"/>
          <path class="cls-3" d="M123.4,205.52c16.72-.25,16.72,26.03,0,25.78-16.61.23-16.61-25.86,0-25.62M114.81,222.08c-1.31-3.12-.83-6.71,1.25-9.37M122.15,208.17c7.25,2.84-6.41,4.02.16.16M127.15,208.8c5.39-1.3,1.39,5.52,0,0M128.24,216.3c7.37,4.61-7.28,4.56,0,.16M383.69,248.79c12.41,9.84-13.73,1.62-9.69-10,4.02-.64,4.02.73,4.69,4.22"/>
          <path class="cls-3" d="M383.69,248.64c12.41,10.2-13.64,1.78-9.69-9.84,3.89-.64,4.03.7,4.69,4.06"/>
          <path class="cls-3" d="M407.75,228.01c-4.31.8-26.67,31.06-28.9,14.84,2.92-2.23,38.45-35.83,28.9-14.84ZM404.32,225.98l-19.69,16.72M372.44,255.67l6.41-5.31M369.94,252.7l6.41-5.31M372.44,255.67c-.92-3.66-6.22-4.34-7.44-.5-1.87,6.16,8.51,6.92,7.44.5"/>
          <path class="cls-3" d="M367.76,257.08c-1.08-5.36,5.37,1.8,0,.16M403.38,21.31c13.78-.2,13.78,21.45,0,21.25-13.78.2-13.78-21.45,0-21.25Z"/>
          <path class="cls-3" d="M393.54,35.37c-27.4,9.36,15.56,34.78,11.09,7.03M386.04,43.97c.47,1.87,6.41,8.75,14.84,8.75M397.29,29.28c1.25-1.91,3.67-.14,2.66,1.72-1.31,1.75-4-.28-2.66-1.72M402.75,32.56c-18.23,9.84.61-21.01,0,0M389.79,40.53c5.55-3.27-1.81,6.95.16,0M301.2,234.89c3.22,7.36,13.58,17.39,15.47,25,10.17,17.06,13.55,29.59,29.69,8.28-8.89-12.66-18.4-34.4-29.06-43.9-2.03,2.17-19.72,5.22-16.09,10.62"/>
          <path class="cls-3" d="M303.54,234.11c8.47,12.42,19.14,28.58,26.72,42.34M316.67,247.54l10.62-5.47M320.73,255.04l10.94-5.94M311.04,233.17c6.53-6.44,9.09,3.36,12.34,7.5-6.47,6.5-12.87-2.17-12.34-7.66M335.26,255.04c1.8-.14,2.73,2.92.47,3.12-1.94.27-2.47-2.72-.47-3.12M326.35,258.32c.7-.05.91,1.34,0,1.25-.84.09-.84-1.34,0-1.25M329.64,259.26c.81,0,.81,1.27,0,1.25-.81,0-.81-1.27,0-1.25ZM325.57,261.76c1.52.41-.78,1.97-.62.47.11-.42.31-.58.62-.47M329.17,262.86c.31,0,.47.2.47.62-.03,1.25-2.11-.27-.47-.62"/>
          <path class="cls-3" d="M84.34,45.53v5M84.34,64.12v5M96.06,57.25h-5.16M77.47,57.25h-5.31M92.47,65.68l-3.75-3.59M79.34,52.56l-3.75-3.59M75.59,65.68l3.59-3.59M88.72,52.56l3.59-3.59M95.9,57.25h-5M77.47,57.25h-5.31M88.25,46.31l-1.72,4.69M81.53,63.5l-1.87,4.69M94.97,61.62l-4.69-1.87M77.78,54.75l-4.69-1.72M88.72,68.18l-2.03-4.69M81.53,50.84l-2.03-4.69M73.25,61.78l4.69-2.03M90.43,54.43l4.69-2.03M95.12,61.46l-4.69-1.87M77.94,54.59l-4.69-1.72M232.61,174.11c.5-3.34,1.64-3.94,4.69-2.5M233.08,185.52c-3.48-.48-4.11-1.66-2.66-4.84M243.7,173.64c3.48.48,4.11,1.66,2.66,4.84M244.33,184.89c-.5,3.56-1.66,4.06-4.84,2.5"/>
        </g>
        <g>
          <path class="cls-3" d="M406.5,240.67c0,.77-2.02,19.61-1.87,20.31,3.81,4.25,11.12,20.83,18.28,12.97-.22-1.05,5.64-21.08,4.37-22.03-4.25-3.45-14.39-18.8-20.78-11.25"/>
          <path class="cls-3" d="M408.07,241.61c3.7,3.31,11.19,15.44,17.5,10.94-9.62-3.12-7.52,17.73-9.37,22.19M416.97,241.45c15.73-13.78,20.89,2.84,26.09,16.09-.84,6.17-13.12,12.95-19.22,13.75M412.13,243.33l3.44-.31M416.5,248.01l3.59-.62M409.94,246.29l-2.03,15.62M414.16,251.29l-2.19,16.25M407.6,249.42l8.28,9.84M406.82,257.08l7.81,9.84M420.25,261.29l3.28-.62M419,269.11l3.12-.78M420.1,242.08l2.34,5"/>
          <path class="cls-3" d="M426.82,256.92c2.62,5.59,2.37,5.61-2.03,9.69"/>
          <path class="cls-3" d="M427.75,239.11c3.23,9.22,14.87,22.48,1.09,28.75M430.41,262.07l10.16-2.34M424.16,245.67l10.47-1.72M429.16,253.64l8.59-1.87M428.38,265.67l6.87-1.72M426.35,268.64l4.84-1.25M94.18,7.72l13.59,10.62c6.78,17.15-32.15-13.37-13.59-10.62Z"/>
          <path class="cls-3" d="M92.15,9.12c1.8-.06,1.45,3.02,0,2.5-1.83-.14-1.19-2.52,0-2.5M105.43,19.44c1.67-.03,1.52,3.02,0,2.5-2.2-.14-1.47-2.72,0-2.5M97.15,12.56c-3.55,2.47,1.69,4.19,3.12,5.78,3.62-2.28-1.86-4.2-3.12-5.78ZM81.53,17.87l3.12-2.19c1.17,2.33,21.44,13.08,15.94,17.03"/>
          <path class="cls-3" d="M97.78,31.47c-4.69,23.84,27.17-4.39,25.94,16.25-.69,12.14-22.36,6.64-11.09-3.12,13.62-6.98,21.76,13.5,7.81,18.44-21.61,10.09-18.14-26.45-32.5-26.25-6.72-.47-6.25-8.59-3.12-9.69,6.45-3.91,8.95,15.53,12.97,3.91M389.32,104.43c-1.44-7.84-19.83-25.37-2.34-26.56-.86,3.41,13.09,28.44,2.34,26.56ZM392.29,111.15c3.69-1.09,5.52-2.11,3.12-5.94-3.86,1.17-5.98,1.92-3.12,5.94ZM313.86,155.83c2.23-3.72,1.94.72,2.97,2.19-3.41,3.72-33.12-25.98-35.62-27.5-4.48-14.17,31.94,27.25,32.65,25.31h0ZM284.01,127.71l-.78,3.91M286.04,129.27l-1.09,3.59M277.76,131.62l3.44-1.09M279.48,133.02l3.59-1.09M281.36,134.43l3.59-1.09M337.29,153.02c1.27-4.42,2.03.16,3.44,1.41l-4.53.94c-1.66-1.83-40.53-19.14-36.87-23.59l37.97,21.25ZM301.82,132.24l.31,4.22M304.17,133.33l-.16,3.91M296.67,137.55l3.12-1.87M298.7,138.49l3.12-1.87M300.89,139.58l3.12-2.03M333.38,133.96c.36-4.64,2-.14,3.59.78l-4.22,1.56c-2.06-1.42-43.56-10.78-41.09-15.78l41.72,13.44ZM294.33,120.52l.94,4.06M296.83,121.15l.47,3.75M290.11,126.46l2.81-2.34M292.29,127.24l2.81-2.5M294.64,127.71l2.66-2.5M128.09,166.61c21.09,5.41,33.04,25.67,40.62-6.87-13.12,3.27-12.87.2-14.37-11.72-22.42,20.67-12.23-22.97-26.25,18.59ZM131.21,159.43l31.87,12.81"/>
          <path class="cls-3" d="M147.77,159.11c3.17-6.12,4.69,3.73.62,2.81-1.56-.62-1.09-1.56-.62-2.81M137.31,155.52c4.53,3.19-3.41,3.41,0-.16M159.34,165.21c2.91-2.17,1.42,2.78-.47,1.56-.31-.52-.16-1.05.47-1.56M412.75,107.4c-2.58-2.92-16.41-8.56-12.5-14.22,2.89-2.59,8.7-17.37,14.05-12.5,3.12,2.95,17.42,9.31,12.2,14.37-2.97,3.23-8.27,15.97-13.75,12.19"/>
          <path class="cls-3" d="M410.88,103.02c-12.53-3.14-5.66-22.81,5.16-18.12,12.8,3.06,5.78,22.95-5.16,18.28"/>
        </g>
        <path class="cls-1" d="M408.85,96.15c-4.03,4.66,6.16,4.33.31,2.03.53-2.52,1.33.3,2.19.78,1.2-1.47-.61-3.98-2.66-2.66M414,86.93c-4.78,2.41,4,3.03.94,5.47-2.7.19-2.39-1.89-4.69,2.03-.66,3.72,9.3,1.12,6.87-.94-1.05,1.25-2.3,1.41-3.75.47-.52.44-.98,2.33-1.72.94,1.67-1.62,9.53-2.98,2.34-6.41.78-.98,5.34,1.62,3.28,4.84,4.97.11-1.48-8-3.28-6.41"/>
        <path class="cls-3" d="M72.94,88.81c-5.41,16.89-30.37,7.67-24.22-8.75,8.75-22.17,31.86-14.23,24.22,8.75M65.44,87.24c-8.44-1.02-16.2-8.02-6.72-13.44,8.37,1.08,16.56,8.25,6.72,13.44M58.41,89.43c5.64,3.48-6,3.44.16,0M53.41,86.31c2.31-.27,1.78,3.19,0,2.81-2.59.12-1.52-3.36,0-2.97M64.19,89.59c2.03-.03,2.03,3.16,0,3.12-2.03.03-2.03-3.16,0-3.12Z"/>
        <g>
          <path class="cls-3" d="M267.14,244.42c-15.42-9.2-16.01-4.47-2.5,2.97M271.51,248.33c12.36,13.67,8,15.12-2.19,2.81M267.14,244.58c.27-3.39,7.53,2.52,4.37,3.75M264.8,247.39c-2.95,1.55,3.69,6.8,4.53,3.59"/>
          <path class="cls-3" d="M267.45,251.92c-2.25.19-18.7,28.06-21.4,19.53,2.36-.3,18.45-28.08,21.4-19.53ZM439,189.89c-2.53,1.23-10.58-9.17-7.34,2.97-9.78,4.7,3.28,7.53,6.72,8.75,3.44-1.31,1.41-3.53.78-5.62,4.84-.67,4.89-7.31-.16-6.09"/>
          <path class="cls-3" d="M434.16,198.33s-4.06,5.16.78,7.5M434,190.52l2.97,7.81M431.5,195.99l7.19-2.81"/>
        </g>
      </g>
      <g>
        <g>
          <path class="cls-3" d="M54.19,220.36c7.41-4.95,3.58,7.52.94,7.03-2.41-3.08-8.98-6.42-.94-7.03ZM51.53,209.42c-6.72,2.86-3.41-3.14-2.5-6.87,2.89-.7,10.84,7,2.5,6.87ZM47.31,216.14c3.08,7.52-2.66,3.06-6.56,2.5-1.56-2.31,7.5-11.06,6.56-2.5ZM58.25,213.48c-4.3-7.22,7.19-3.73,7.34-.94-2.95,2.58-6.61,8.17-7.34.94ZM436.19,285.98c6.44-.08,6.56,10.31,0,10.16-6.59.09-6.59-10.25,0-10.16"/>
          <path class="cls-3" d="M436.03,287.85c0-4.22,1.25-9.37,9.22-13.12,0,0-5.16,7.81-.47,13.12"/>
          <path class="cls-3" d="M435.1,287.7s.62.62,2.03,0M443.69,288.17s1.56,0,1.56-.78M439.31,278.95c-1.56-2.81-5.78-2.97-9.06.94,0,0,4.69,4.69,9.06-.94M173.71,180.52c-2.47-5.3,4.47-8.7,7.19-3.12-1.7,1.64-4.55,5.58-7.19,3.12M177.15,173.33c1.61-3.5,3.84,1.44,5.31,2.34-1.61,3.5-3.84-1.44-5.31-2.34ZM180.58,173.8l3.75-3.75M208.86,175.21c1.2-3.73,5.55-1.27,7.97-.78.42,6.37-7.33,6.67-7.97.78M215.27,179.89l1.56-5.31c3.45-.52,1.06,7.7-1.56,5.31ZM218.24,177.71l5,1.56M199.64,192.55c1.3,3.78-3.87,4.17-6.09,5.16-4.16-5,2.48-9.64,6.09-5.16"/>
        </g>
        <path class="cls-2" d="M189.65,193.17c2.73-2.36,5.39,5.5,1.87,5.31l-1.87-5.31Z"/>
        <g>
          <path class="cls-3" d="M190.58,195.83l-4.84,1.72M173.55,180.52c-19.8,31.01,50.36-19.72,26.25,11.87M190.74,183.64c4.37-2.66,10.31-10.94,17.81-8.44M110.59,151.93c-2.81-1.69-54.61,3.95-52.81-3.59,1.56-3.06-3.66-37.48,3.44-36.56,2.81,1.69,54.78-3.95,52.96,3.59-1.58,3.03,3.67,37.62-3.44,36.56h0M109.18,151.93c6.91,10.01-44.84,2.47-46.4,4.69v-4.69M98.09,147.71c-4.36-2.19-37.79,5.55-36.26-5.62-.64-36.04-2.09-23.62,36.75-25.76,6.5.92,6.77,30.9-.33,31.23"/>
          <path class="cls-3" d="M65.91,130.21c-.06-3.83-.86-10.86,4.84-10.78M108.25,119.43c2.78-.25,2.53,4.47,0,3.75-2.45.09-2.45-3.84,0-3.75M108.25,126.62c2.44-.03,2.44,3.78,0,3.75-2.5.02-2.5-4.33,0-3.75M106.53,136.77h3.91M106.37,139.27h4.06M106.37,141.93h4.06M106.37,144.58h4.06M79.19,111.77c1.14-7.23,12.62-7.41,13.75,0M78.25,94.9c8.97,17.76,11.01,5.98,19.84-3.28M62.31,154.74c-15.47,2.5-24.06-8.12-16.25-18.59,11.8-15.06-3.97-29.23-13.28-13.12M28.56,124.9c1.36-4.22,3.44-2.2,6.09-.47-1.52,4.05-3.45,2.37-6.09.47ZM27.94,128.02l1.56-2.19M29.97,129.43l1.56-2.34M436.19,160.21c-17.98-8.08,13.73-18.08,3.91-1.41M441.66,157.24c1.62-.33,2.28,1.56.62,1.87M435.1,160.05c-1.61,1.23-.28,2.8,1.25,1.56M439.16,177.24c-2.47.48-2.02-2.67-.16-2.97"/>
          <path class="cls-3" d="M436.35,161.77c4.12,2.03-.16,8.61,2.66,12.66"/>
        </g>
      </g>
      <path class="cls-1" d="M441.35,174.11c.33-.33,8.91-2.81,5.31-3.59-.22.41-8.25,2.72-5.31,3.59"/>
      <g>
        <g>
          <path class="cls-3" d="M445.41,90.99l-12.34-.47M195.9,4.59c1.78,1.7-14.26,1.7-12.5,0M212.14,4.59h-16.56M183.24,4.59h-15.78M171.68,4.75c-6.44,20,22.51,11.22,32.19,13.12,4.92.48,3.56-10.31,4.53-12.97M63.41,259.89c-14.2,13.84-19.64-7.83-.78-2.81M68.25,255.51c14.56-13.5,19.03,8.09.62,2.97M60.59,259.11l10.94-2.81M144.49,190.83c8.59-1.45,10.67,12.08,2.05,13.28-8.61,1.45-10.67-12.08-2.05-13.28M156.37,183.02c4.45-.06,4.45,6.94,0,6.87-4.45.06-4.45-6.94,0-6.87M156.37,206.45c16.51,10.37-16.22,10.78,0,.16M149.18,192.55l4.37-3.91M148.87,203.02l4.22,4.22"/>
          <path class="cls-3" d="M222.14,33.65c3.41,2.81-3.67,2.27-.16,0M230.74,29.59c-3.64-6.8-14.01-6.75-17.65,0M228.39,31.31c-2.31-5.61-10.81-5.58-13.12,0M225.74,33.5c-.97-3.86-6.84-3.84-7.81,0M413.85,193.17c0-3.14-6.11-1-4.06,1.41-3.22.41.11,3.2-3.12,3.44-.41-1.67-1.09-2.09-2.66-1.25-.09-3.19-6.17-1.05-3.91,1.41-5.03.69,2.22,9.28,4.69,7.19.42,3.09,3.02.03,3.44,3.12,2.61-1.69,1.97,2.36,4.69.62-1.97-2.61,2.2-1.89.47-4.53,1.69-.56,2.34-1.14,1.25-2.81,1.75-.45,2.31-.98,1.25-2.66,3.42.14.61-8.14-2.03-5.94h0ZM340.26,33.19c1.08-7.39,6.16-12.72-5.47-10l14.37,12.03c2.83-13.58-5.61-5.84-13.12-5.31M113.25,102.71c-3.12,3.39-7.22-2.94-9.56-4.55-3.87-10.69,14.03-1.14,9.72,4.55M115.9,98.18c1.42,4.16-2.66,8.47-6.87,7.34M114.5,103.96l2.81,2.5M38.41,166.46c2.09,7.45,12.19,28.65,17.19,8.59M29.03,172.86c6.25,8.59,15.31,14.53,25.62,17.03"/>
          <path class="cls-3" d="M48.41,167.71c1.25,10.31.47,22.19-12.34,28.12"/>
          <path class="cls-3" d="M26.38,184.27c4.47,5.45,25.61,1.42,19.53,12.03M154.34,122.87c-8.31,43.78-61.34-9.78-17.19-17.5v17.34l17.19.16Z"/>
        </g>
        <path class="cls-2" d="M130.28,116.77c1.42-.02,1.42,2.2,0,2.19-1.42.02-1.42-2.2,0-2.19ZM220.89,195.52c1.02-5.83.8-5.84,2.5-.16,3.62.95,6.19.61.78,2.19-1.28,5.72-1.05,6.53-3.28.47-5.77-.64-4.53-.62,0-2.5Z"/>
      </g>
      <g>
        <path class="cls-2" d="M255.42,160.83l9.53,12.34c9.94,1.02-7.52-19-9.53-12.34Z"/>
        <path class="cls-3" d="M237.92,149.74c8.28-22.48,32.37-2.06,24.84,13.59M259.64,166.3c-6.12-3.3-13.67,4.53-19.37-8.59M249.33,165.83l14.84-12.5M32.47,227.39l-2.66-1.72M22.94,221.45l-4.22-1.87"/>
      </g>
      <path class="cls-1" d="M4.66,246.61c1.94-21.09,26.54-9.75,38.43-13.28-11.17-2.12-44-4.06-38.43,13.28ZM14.35,219.27c3.09-1.87-11.56-4.52-13.59-4.22,2.12,2.75,9.92,1.44,13.59,4.22"/>
      <g>
        <path class="cls-3" d="M18.1,209.42s-6.25-3.12-11.72,0M8.25,243.79c.78-2.5,2.97-7.66,10-7.5M32.31,237.55c2.81.05,2.97,5.17,0,4.53-3.67-.2-2.7-4.52,0-4.53M39.03,244.89c8.27,4.95-7.12,5.69,0-.16M23.72,245.67c3.03-.23,3.34,4.53.3,4.67-2.98.27-3.44-4.67-.3-4.67"/>
        <path class="cls-3" d="M22.78,133.02c.94-15.89-6.23-26.79-16.25-5.78,3.89,1.97,12.14,11.87,16.41,5.62"/>
      </g>
      <g>
        <path class="cls-1" d="M420.88,136.15c-2.41-6.27-16.84-17.5-3.12-20.78.89-.16,1.41,1.41,1.87,1.87,7.84-5.03,2.05.05,8.91,5.16-1.86.45-7.75,6.95-8.59,2.34-8.78,1.78,5.08,10.53.94,11.41h0ZM412.29,120.37c2.47,5.47,4.69,5.95,9.22,2.03-2.47-5.47-4.69-5.95-9.22-2.03ZM422.75,122.87c-1.81,4.55,3.33-1.08,4.37-.94-4.12-1.86-3.89-.95-3.75-5.62-5.61,1.5.47,5.87-.62,6.56M237.61,16.47c-3.39-1.11-3.22-3.44-4.84-5-.22.27-4.64,7.17-4.06,3.75,1.95-4,8.84-13.41,9.84-4.69,4.28,2.41.45,2.73-.94,5.94M235.58,13.66c2.37,2.33.8-1.34,3.59-1.25-2.17-2.53-1.44,1.92-3.59,1.41M233.39,10.69c2.06,1.67,3.22,1.5,4.37-.94-2.09-2.03-3.11-1.44-4.37.94ZM292.45,154.9c-1.34-1.36-6.55-2.73-3.44-5.16.09-.48-7.53-6.53-8.12-5.16.61-.03-15.19,20.01-10.62,17.5,2.98-2.75,5.59-13.37,10.47-6.41-4.89,3.06,4.58,5.95,5.94,7.66,1.84.95.58-4.59.94-5.16.39-.45,6.41-1.7,4.84-2.97M277.3,151.77c3.52-6.31,5.02-6.81,10.47-1.87-3.42,6.53-4.98,6.64-10.47,1.87ZM282.3,156.61l-1.09.31c.28-.52.58-.72,1.09-.31ZM286.98,157.08c-.97-.22-.27,4.3-.47,4.69-.53-1.47-8.98-3.81-2.66-4.22.2,0,3.11-4.48,3.28-4.69,3.28,2.33,4.37,2.77-.16,4.22Z"/>
        <path class="cls-1" d="M188.24,262.39c6.58,1.42,12.7,5.53,18.75,8.12.42-4.23,13.84.94,4.69,2.5,4.92,7.59-7.67,1.83-5.16-1.41-4.52-2.33-18.44-4.73-18.28-9.06M192.93,265.04c5.14,4.78,7.22.53-.16,0M207.93,272.07c-.89,1.92,2.53,2.5,3.59,3.12-.37-1.52-2.16-2.77-3.59-3.12M209.49,269.57c-3.08,2.17,2.23,2.53,3.75,1.56l-3.75-1.56Z"/>
      </g>
      <g>
        <path class="cls-1" d="M41.69,166.14c20.06-.3,20.06,31.23,0,30.94-20.06.3-20.06-31.23,0-30.94Z"/>
        <path class="cls-4" d="M354.01,140.21l2.66,2.66M355.41,138.96l3.91,3.91M360.73,135.05l2.03,1.87M362.76,133.33l3.12,3.44M364.01,131.77l2.34,2.19M367.91,126.15l1.56,1.56M369.16,125.05l2.97,2.34"/>
        <path class="cls-1" d="M351.82,140.21c-3.55-3.97-8.75,4.14-8.12-6.87-7.2-3.14-5.39-15.67,2.34-7.03-5.62-9.01-9.69-8.61-11.41-19.84,9.34-1.92,12.26,5.61,20.47,10.31-5.95-4.83-.25-13.17,7.19-2.34,7.48.11,7.5.97,5.47,7.34,2.84,1.33,2.08.3-1.56,4.22-1.62.41-6.05-5.28-7.81-5,1.64,2.09,4.23,6.61,6.09,8.44-8.12,10.3-5.95,2.28-14.69.47,4.09,2.89,6.86,9.23,2.03,10.47M345.1,134.74c.75,5.39-.17,5.25,2.97,2.81l-2.97-2.81ZM351.98,138.02c-.05,1.33,1.45-1.09,1.72-1.09-.44-.25-1.44.89-1.72,1.09ZM339.79,126.15c-.8,1.45,11.55,16.42,13.12,9.22-2.22-2.75-11.25-14.78-12.97-9.22M357.29,131.77c1.03,5.37,4.31-1.77,6.09-2.5-3.2-3.14-2.84,2.19-6.09,2.5M336.2,107.24c19.61,45.47,38.28,10.78.16,0M346.98,127.08l2.03,2.03c1.47-.42-1.61-3.5-2.03-2.03ZM366.2,123.96c-.37,1.37,1.39-1.16,1.56-1.09-.45-.25-1.28.87-1.56,1.09ZM356.51,116.15c1,.45,7.09,8.42,8.44,7.19,7.77-4.47-19.62-20.33-8.44-7.03M355.73,118.34c.53.23,2.05,2.66,2.66,1.41-.59-.27-2.05-2.98-2.66-1.41ZM363.85,115.84c2.22,4.78,9.05-.08,0,0M346.82,114.9c3.66-.05,3.66,5.67,0,5.62-3.66.05-3.66-5.67,0-5.62Z"/>
      </g>
      <g>
        <path class="cls-3" d="M225.27,243.01c11.97,20.2-23.05,4.25-.16-.16"/>
        <path class="cls-3" d="M223.71,246.92c3.22,5.42-5.94.03-.16,0"/>
      </g>
      <path class="cls-1" d="M244.95,252.7c2.77-19.31-6.94-17.22-14.69-28.75-4.64-6.27-22.45,17.5-25.94,18.75-6.31,4.69,17.64,22.31,18.9,25.78,4.05,6.02,20.01-14.23,21.72-15.78M232.77,228.48c6.94,7.14,12.48,10.09,1.56,17.19-7.12-7.12-12.31-10-1.56-17.19ZM224.02,234.89c-3.44-.89,7.45-11.17,7.97-7.19l-7.97,7.19ZM243.24,253.33c-24.53,22.92-12.8,18.48-38.28-5.94-4.61-3.37,19.83-20.51,20.62-22.81,12.84,1.14-17.34,3.58,8.12,22.34,7.81-4.22,12.67-16.44,9.69,6.56"/>
      <path class="cls-3" d="M232.3,240.51c2.17-1.47,4.75-6.56,6.87-2.03-2.17,1.47-4.75,6.56-6.87,2.03Z"/>
      <g>
        <g>
          <path class="cls-3" d="M215.43,128.33c-8.59,1.42,3.17-58.06.62-70.15-2.47-3.61,20.86-20.51,22.03-18.12-4.55,14.87,23.4,99.81-9.37,90.31-4.33-.91-14.67-9.89-13.91.62-.48,3.45,34.23,3.39,30.94-.62l4.06.94c7.56-1.09,1.05-37.7,2.19-43.28-3.67-4.73,14.06-59.85-7.66-39.84,10-3.28,6.83,83.26-.62,81.87M217.77,128.49c1.31.98,2.89,1.53,4.53,1.56M245.58,86.78v3.12M245.58,92.71v2.19M250.73,108.02l-.62,17.03M238.7,47.4l5.47,1.09M102,234.42c-47.81-6-30.97-77.38.16-.16M135.9,188.02c6.05-16.8-58.87-33.36-35.62-6.25,6.5,1.53,28.7,4.66,35.62,6.25"/>
          <path class="cls-3" d="M78.09,193.95c-4.78,4.73,5.78,6.42,8.12,8.12,5.44,1.83,11.91-12.89,14.53-15-2.2-22.23-16.69-4.58-22.65,6.87M71.06,207.39c-2.52-.47,1.52-10.45,3.91-8.28M94.65,172.55c-3.11-1.23,5.08-8.39,6.56-6.41M102.46,233.95c5.45-12.86-15.53-12.51,4.69-31.72,14.42-26.86,18.58-3.87,28.59-13.75M105.43,199.42l-1.56,2.03M94.97,202.86c5.06-.08,5.06,7.89,0,7.81-5.06.08-5.06-7.89,0-7.81ZM107.78,185.36c5.27-.08,5.27,8.2,0,8.12-5.27.08-5.27-8.2,0-8.12ZM100.75,196.61c1.83-.03,1.83,2.84,0,2.81-1.83.03-1.83-2.84,0-2.81ZM79.03,201.92l-1.25-.62M97.15,174.27l1.09,1.09M104.03,176.77c2.44-.03,2.44,3.78,0,3.75-2.44.03-2.44-3.78,0-3.75ZM108.87,170.05c2.44-.03,2.44,3.78,0,3.75-2.44.03-2.44-3.78,0-3.75ZM103.09,170.83c2.44-.03,2.44,3.78,0,3.75-2.44.03-2.44-3.78,0-3.75ZM109.81,175.83c2.44-.03,2.44,3.78,0,3.75-2.44.03-2.44-3.78,0-3.75ZM81.06,209.11c-1.52.97-5.11.52-4.37-2.03,1.53-3.33,5.06-.95,4.37,2.03M81.37,209.58c-.69,1.36.83,3.02,1.87,3.75,4.66.39,1.84-6.41-1.87-3.75"/>
          <path class="cls-3" d="M81.53,209.11c-1.73-2.39,1.17-6.44,3.44-3.28,1.66,1.77-2.02,3.98-3.44,3.28M81.06,209.58c-9.67.45,2.2,9.47-.16,0M272.3,274.57c11.36.23,33.64-3.97,42.03,5"/>
        </g>
        <path class="cls-3" d="M270.26,281.6c5.87-.08,5.87,9.16,0,9.06-5.87.09-5.87-9.16,0-9.06ZM301.82,283.64c3.25-.05,3.25,5.05,0,5-3.25.05-3.25-5.05,0-5ZM306.67,279.1c3.25-.05,3.25,5.05,0,5-3.25.05-3.25-5.05,0-5ZM311.36,283.95c3.25-.05,3.25,5.05,0,5-3.25.05-3.25-5.05,0-5ZM306.67,288.48c3.25-.05,3.25,5.05,0,5-3.25.05-3.25-5.05,0-5ZM288.39,276.45c3.25-.05,3.25,5.05,0,5-3.25.05-3.25-5.05,0-5ZM283.08,284.42c2.23-.03,2.23,3.47,0,3.44-2.23.03-2.23-3.47,0-3.44ZM293.7,284.42c2.23-.03,2.23,3.47,0,3.44-2.23.03-2.23-3.47,0-3.44ZM289.33,291.14c-8.87-.75,4.78-4.58,0,0M263.86,278.01c.16-2.97,11.03-7.56,13.28-4.06M299.64,274.11c2.67-3.8,11.86.45,13.59,3.91"/>
      </g>
      <g>
        <path class="cls-3" d="M369.48,294.57c2.77-13.53-8.44-13.28-6.09-25.62h0M375.26,281.76,351.66,282.07l5,2.19M351.51,295.82l5.16-1.56M369.79,284.1l5.16-2.19M357.29,290.04l10.47-7.5M358.07,294.73l11.25-8.12M81.84,267.07c-6.59,4.78-12.14,18.8-.31,13.59-4.22,6.11-1.83,3.7,3.75,4.22-7.69-5.66,15.09-.27-3.44-17.81"/>
        <path class="cls-3" d="M264.48,187.24c5.83,4.17-.98,10.42-4.37,4.06M256.05,186.61c-5.94-4.16.8-10.05,4.37-3.91M253.86,192.7c-3.12-3.72,9.48-14.55,12.81-11.41,2.97,3.56-9.5,14.89-12.81,11.41M364.01,236.14c1.91,8.61-9.11,8.56-7.19,0M356.82,228.8c-1.94-8.69,9.03-8.83,7.19-.16M349.95,233.17c-1.89-7.56,14.75-3.34,17.97-4.37,13.28,7.86-17.22,10.48-17.97,4.53M363.7,102.09c-.62-3.12,0-5.31,1.56-7.97M367.91,94.27c-1.67,2.7-2.19,5.52-1.56,8.44M367.44,106.46c7.92-1.22,9.05-15.01-.62-15.78-9.16,2.22-9,14.8.62,15.78ZM360.1,97.4l-14.06-2.34"/>
      </g>
      <g>
        <path class="cls-1" d="M2.47,2.72c-4.08-.09,11.45,7.55-1.87,19.69,8.08-3.25,9.19-14.98,1.87-19.69M13.25,68.96c-7.84-2.84-7.83,7.77-12.66,6.56-1.05,1.81,3.94,2.27,4.69,2.81l-.31,4.22c-.75.17-5.44-3.11-4.37-.31,2.86.27,1.06,2.55.16,3.75-.19,8.66.53-3.09,5.47-2.5l.31-5.47c-5.8-2.31,0-4.28,1.56-7.81.8-.19,7.69.72,5.16-1.25ZM18.1,136.93c-.47-2.97-1.56-3.12-11.25-10.16,12.56-12.33,6.58-22.56-6.09-14.69.84.48,3.06,2.67,3.75,1.09,12.14-10.64,8.05,8.7,1.25,13.12-4.8-4.52-7.7-3.52-.94.62-.86,1.41-5,6.08-4.06,7.97,5.78-8.28,5.31-7.34,5.31-7.34,10,7.19,10.62,7.19,10.94,9.37.97,4.66-5.02,6.98-7.97,3.59-2.97-1.02-2.77,5.47-8.28,2.97-.02,3.62,6.75.87,7.34-2.03,3.69,4.14,10.97,1.12,9.84-4.53"/>
        <path class="cls-1" d="M.75,286.29c1.23,3.56,1.55,6.09-.16,9.53,3.73-1.34,3.62-7.55.16-9.37M46.53,232.55c-6.06-4.11-8.59-7.92-16.41-5,7.81-23.42-27.62-29.4-29.37-14.22,6.03,2.44,12.36.23,17.5,5,2.27,13.34-29.09,1.33-10.16,7.19-2.56-.3-7.08.09-7.34,3.59,4.98-5.92,23.39,3.05,35.62-1.56,37.03,17.44-25.73,42.39-35.62,18.28,2.98,21.28,61.92,9.8,45.78-13.12M21.69,227.39c-10.22.89.14-9.28-2.34-10-19.56-10.87,10.34-10.28,2.34,10M28.88,227.39c-10.72,2.89-2.56-33.5-20.31-13.91-25.92-1.94,29.28-20.76,20.31,14.06M1.69,172.39c-.94.17-1.27.81-1.09,1.72.89,0,3.16-1.8,1.09-1.72"/>
        <path class="cls-1" d="M5.6,171.14c.22-1.44-5.33-6.53-4.84-3.59,2.14.47.55,3.25,2.03,2.81,3.73-.97-.25,1.92,1.41,2.5,6.3-1.34-2.25,2.97-3.59,2.97-2.58,4.25,12.17-3.34,5-5M.75,5.53c2.72,4.56,2.61,8.86,0,12.81,5.08-2.36,4.8-10.45,0-13.12"/>
        <path class="cls-1" d="M447.75,5.53c-1.48-1.14.34-1.67,0-2.97-3.55-.47-.5,6.83,0,2.97ZM447.75,21.16c-14.36,8.16-18.67-19.86-8.59-15.94-10.59,5.75,2.78,21.08,8.59,12.5-12.47,4.7-12.23-7.28-7.16-14.23-16.86-3.08-4.47,29.92,7.16,17.67ZM447.75,85.99c-6.75-1.37-16.9,3.62-11.56-7.97.34-.53,13.23,6.42,11.41,2.97-14.22-3.16-17.05-11.75,0-4.37-6.47-5.42-12.33-5.02-10.94-4.84-4.41,10.22-6.61,28.19-6.25,26.4,12.91,7.7,15.06-.92,17.34-12.19ZM440.72,100.68c-9.8-2.05-9.89-5.2-6.72-13.91,16.58-.78,12.94,1.8,6.72,13.91ZM447.75,143.33c-4.77-2.84-.25-6.7,0-10.16-3.3,7.5-14.78,4.8-8.59-4.22-5.91-2.47-3.81-12.3,3.12-8.75.52-.22,6.52,6,5.31,2.5-6.17-2.11-9.19-12.16.16-10.62-2.14-6.73-20.08,14.95-9.84,17.19-5.19,4.62.22,12.72,6.41,9.37-.98,3.2,3.91,8.27,3.44,4.69h0ZM447.75,175.83c-.56-.22-10.76,5.64-9.69,2.66.03-.22,3.05-1.75.78-1.87-8.12,6.73,9.44,2.78,8.91-.78Z"/>
        <path class="cls-1" d="M447.75,173.02l-6.56,2.66c-2.14,2.72,8.08-1.31,6.56-2.66ZM447.75,166.14c-3.25-2.39-4.72-3.91-5.16-6.72-4.31-3.06,4.7,11.94,5.16,6.72ZM447.75,214.89c-6.72-.16-4.37,2.19-3.75,1.56.94-.73,4.44.66,3.75-1.56Z"/>
        <path class="cls-1" d="M447.75,245.36c-3.66-4.45-1.73-7.11,0-10.78-6.87,8.37-16-14.67-7.97-17.03-2.37-.98.95,11.19,7.81,13.44-.27-1.75,1.14-5.11-1.41-1.87l-3.91-5c.61-.36,6.62,1.2,5.47-.94-11.37,1.94-4.16-6.8-8.28-7.03.16-3.12,5-3.59,8.28-3.44-5.34-6.23-13,6.86-12.66,11.87,1.33,3.86,11.76,23.12,12.66,20.78h0ZM447.75,294.57c-4.22,3.7-7.7-3.23-7.81-.47M447.75,286.29c-2.37-2.52-10.39,1.62-6.87,2.5,1.47-4.23,7.05-.11,6.87-2.5Z"/>
        <path class="cls-1" d="M444.31.84v11.72c-4.3,5.52-.08-13.37-3.12-11.56-2.28,22.58,8.55,12.59,3.12-.16ZM387.6.84c9.62,7.64,2.2,17.64-7.66,22.19l5.31-21.87c-6.64,18.84-10.36,34.76-11.09,0-11.37,43.18,35.62,12.2,13.44-.31Z"/>
        <path class="cls-1" d="M395.88,1c5.44,27.48-33.98,37.25-25.47.16-13.22,42.47,36.81,25.37,25.47,0M326.04,1.16c-3.09-1.11,1.28,4.03,1.09,4.69l-5.78.78c2.75-.06,5.09-5.59,2.03-5.47.47,3.77-9.09,3.7-8.75,0-3.56,1.17.62,6.95,5,5.94-7.12,3.45-5.53-5.36-10-5.94-.78,4.83.91,14.58,4.69,17.65,13.14-.42,18.62-4.86,11.72-17.65ZM310.89,3.19c2.33,2.87,3.36,8.92,2.81,12.5-2.39-2.91-3.52-8.86-2.81-12.5ZM314.64,3.81c11.97,1.16,7.05,4.11.16,0M327.29,15.22c-7.75.67-14.59,6.09-12.5-6.25,7.56-.44,14.89-6.08,12.5,6.25ZM270.58,1.16c-.02,10.91,11.87,29.36-7.97,27.5.36-9.56-12.3-29.87,6.41-27.5-20.97-6.5-7.12,19.48-7.66,28.44-.2,1.12,15.05-1.73,14.53-2.5-.61,0-3.37-29.61-5.31-25.94h0ZM272.92,1c.28,16.69,15.44,34.17-11.72,33.9-.67-.16-4.64-36.03-6.87-34.06l5.78,34.68c-1.16.33,3.47,1.25,19.37-3.28-.72-.25-4.2-33.42-6.56-31.25ZM211.68,1c4.62,31.04-22.36,16.7-40.78,19.69-4.45.61-1.19-20.28-4.53-19.69,1.31,2.86-1.03,21.26,4.53,20.94,18.39-2.2,49.82,10.08,40.78-20.94ZM189.96,1c.62,1.84.44,2.27-1.56,2.03.06-.91,1.12-2.3-.62-1.87-2.66,6.56,8.83,1.98,2.19,0M195.11,1.16c.05.61-.44,5.97,1.25,3.59-.3-.91.87-4.47-1.25-3.59ZM182.62,1.16c.05.61-.44,5.97,1.25,3.59-.34-.86.95-4.78-1.25-3.59ZM94.34,1c-7.55-.27,9.26,3.3,19.53,19.37-5.7,18.5-21.84-5.66-29.86-9.06.98-5.95,8.44-10.39,6.56-10.16-1.84-.06-10.61,9.58-7.5,11.41,2.06.3,23.45,21.08,25.47,16.87,7.19-9.69,6.87-8.12,6.25-11.25-.16-1.25,1.25.31-20.62-17.03M96.53,1c-4.14-.09-.84.48,20,17.19-11.23,28.44-21.7,7.31-37.5-2.97-.42-.42-.42-.89,0-1.41C87.68,1.73,90.18.98,87.15,1.16c-21.59,16.22,5.56,23.83,15.78,34.37,24.95-16.55,11.17-20.87-6.41-34.53h0ZM55.91,1v3.91C46.78.41,34.59,14.41,32.63,1c-.33.08.8,22.44-.62,21.25V1c-2.5-1.97-.47,21.73-1.09,21.87,5.7,4.72,1.95-14.58,2.97-15.78,7.81,4.69,15-5.94,22.34-.47,1.53.66,1.58-6.62-.31-5.62h0Z"/>
      </g>
      <g>
        <g>
          <path class="cls-3" d="M218.71,58.18v3.12M251.98,227.23c2.64-.03,2.64,4.09,0,4.06-2.64.03-2.64-4.09,0-4.06ZM248.08,208.64c1.14-1.67,3.36-2.62,5.62-2.5M268.55,214.89h1.41M275.58,219.58c-.16-2.34-2.81-4.69-5.62-4.69,3.34-3.34,7.23,1.22,5.62,4.69Z"/>
          <path class="cls-3" d="M274.17,225.51c-3.7,16.67-14.19,13.66-11.09-2.34-10.33-9.5-11.11.87-21.4-.62-4.16-3.55,4.78-11.09,6.41-13.91-1.78,3.08,1.03,5.69,5.62,5.78,7.44-.3,6.52-7.73-.16-8.28,3.27-3.34,7.2.83,6.25,4.06l8.59,4.69c-13.83,4.84,6.27,15.26,7.03,4.53.47,3.12-.78,4.84-1.25,6.09M256.05,216.14l5.62,3.28M257.92,214.89l1.25.78M261.05,216.77l1.41.78M254.33,207.55c-1.67,1.3.53,2.34,1.41.78l-1.41-.78ZM252.3,209.27c.14-1.61-1.31-1.7-2.03-.47.54.52,1.32.7,2.03.47ZM250.42,211.61c.69.55,1.5.97,2.19.16-.08-1.67-1.37-.97-2.19-.16ZM254.17,210.67c-.02,1.48,1.33,1.62,2.03.47-.5-.39-1.41-.77-2.03-.47ZM266.36,217.08c3.97-.87-1.25,3.94,0,0M270.58,216.61c3.97-.77-1.48,3.75-.16,0M271.36,219.73c4.66-.34-2.23,3.98,0,0M267.14,220.2c3.83-.8-1.23,3.83-.16,0M263.55,212.08c1.67-7.98,14.98.06,13.91-10.94"/>
        </g>
        <path class="cls-2" d="M190.66,282.03c1.97-12.03,1.47-11.34,5.06-.23,6.61,1.95,12.67.55,1.08,4.05-2.56,10.33-1.62,13.72-6.06,1.08-11.66-1.67-9.36-1.33-.06-4.87l-.02-.02Z"/>
      </g>
      <g>
        <path class="cls-1" d="M234.45,276.09c1.73-.87,2.86,2.95,3.69,3.75,17.11-11.36,1.48.14,16.89,8.86"/>
        <path class="cls-1" d="M243.55,293.99c17.17-10.12-2.39-1.95,1.67-16.06-11.73,4.56,1.5,8.41-1.67,16.06ZM240.81,292.38l.53.83c0-.73.7-1.81-.53-.83ZM231,296.13c11.19-6.06,11.44-7.3,3.69-17.37-11.19,6.06-11.44,7.3-3.69,17.37Z"/>
      </g>
    </g>
  </g>
</svg>